<svg width="29" height="19" viewBox="0 0 29 19" fill="none" xmlns="http://www.w3.org/2000/svg">
<path fill-rule="evenodd" clip-rule="evenodd" d="M28.9375 9.49996C28.9375 9.22645 28.8289 8.96415 28.6355 8.77076C28.4421 8.57736 28.1798 8.46871 27.9063 8.46871H3.5832L10.0739 1.98009C10.1698 1.8842 10.2458 1.77038 10.2977 1.6451C10.3496 1.51983 10.3763 1.38556 10.3763 1.24996C10.3763 1.11436 10.3496 0.980094 10.2977 0.854819C10.2458 0.729544 10.1698 0.615716 10.0739 0.519835C9.97801 0.423953 9.86418 0.347896 9.7389 0.296006C9.61363 0.244115 9.47936 0.217407 9.34376 0.217407C9.20817 0.217407 9.0739 0.244115 8.94862 0.296006C8.82335 0.347896 8.70952 0.423953 8.61364 0.519835L0.363637 8.76983C0.267601 8.86563 0.191406 8.97943 0.139418 9.10472C0.0874295 9.23 0.0606689 9.36431 0.0606689 9.49996C0.0606689 9.6356 0.0874295 9.76992 0.139418 9.8952C0.191406 10.0205 0.267601 10.1343 0.363637 10.2301L8.61364 18.4801C8.70952 18.576 8.82335 18.652 8.94862 18.7039C9.0739 18.7558 9.20817 18.7825 9.34376 18.7825C9.47936 18.7825 9.61363 18.7558 9.7389 18.7039C9.86418 18.652 9.97801 18.576 10.0739 18.4801C10.1698 18.3842 10.2458 18.2704 10.2977 18.1451C10.3496 18.0198 10.3763 17.8856 10.3763 17.75C10.3763 17.6144 10.3496 17.4801 10.2977 17.3548C10.2458 17.2295 10.1698 17.1157 10.0739 17.0198L3.5832 10.5312H27.9063C28.1798 10.5312 28.4421 10.4226 28.6355 10.2292C28.8289 10.0358 28.9375 9.77346 28.9375 9.49996Z" fill="#1BA8E3"/>
</svg>
