<svg xmlns="http://www.w3.org/2000/svg" xmlns:xlink="http://www.w3.org/1999/xlink" width="40" zoomAndPan="magnify" viewBox="0 0 30 30.000001" height="40" preserveAspectRatio="xMidYMid meet" version="1.0"><defs><clipPath id="587905b2cf"><path d="M 11 24 L 19 24 L 19 27.121094 L 11 27.121094 Z M 11 24 " clip-rule="nonzero"/></clipPath><clipPath id="b94e2a8231"><path d="M 3.386719 1.714844 L 26.613281 1.714844 L 26.613281 24 L 3.386719 24 Z M 3.386719 1.714844 " clip-rule="nonzero"/></clipPath></defs><g clip-path="url(#587905b2cf)"><path fill="#828080" d="M 15 25.96875 C 14.078125 25.96875 13.246094 25.429688 12.875 24.589844 L 11.8125 25.050781 C 12.367188 26.304688 13.617188 27.121094 15 27.121094 C 16.402344 27.121094 17.65625 26.292969 18.203125 25.015625 L 17.136719 24.5625 C 16.769531 25.417969 15.933594 25.96875 15 25.96875 Z M 15 25.96875 " fill-opacity="1" fill-rule="nonzero"/></g><g clip-path="url(#b94e2a8231)"><path fill="#828080" d="M 26.382812 22.078125 L 23.324219 19.546875 C 23.191406 19.4375 23.113281 19.28125 23.113281 19.105469 L 23.113281 12.164062 C 23.113281 9.941406 22.222656 7.871094 20.597656 6.335938 C 19.644531 5.4375 18.515625 4.796875 17.289062 4.445312 C 17.316406 4.265625 17.324219 4.089844 17.308594 3.902344 C 17.222656 2.921875 16.496094 2.085938 15.535156 1.875 C 14.832031 1.714844 14.109375 1.878906 13.550781 2.320312 C 13 2.757812 12.683594 3.410156 12.683594 4.117188 C 12.683594 4.230469 12.707031 4.339844 12.71875 4.449219 C 9.335938 5.453125 6.886719 8.621094 6.886719 12.375 L 6.886719 19.101562 C 6.886719 19.273438 6.808594 19.4375 6.675781 19.542969 L 3.617188 22.074219 C 3.484375 22.183594 3.40625 22.347656 3.40625 22.515625 L 3.40625 23.089844 C 3.40625 23.410156 3.667969 23.667969 3.988281 23.667969 L 26.011719 23.667969 C 26.332031 23.667969 26.59375 23.410156 26.59375 23.089844 L 26.59375 22.515625 C 26.585938 22.347656 26.511719 22.183594 26.382812 22.078125 Z M 13.835938 4.117188 C 13.835938 3.761719 13.996094 3.4375 14.269531 3.214844 C 14.550781 2.992188 14.902344 2.910156 15.273438 2.992188 C 15.738281 3.097656 16.105469 3.519531 16.152344 4 C 16.15625 4.066406 16.148438 4.128906 16.140625 4.195312 C 15.636719 4.125 15.128906 4.101562 14.601562 4.121094 C 14.347656 4.128906 14.09375 4.15625 13.84375 4.195312 C 13.847656 4.167969 13.835938 4.140625 13.835938 4.117188 Z M 4.890625 22.519531 L 7.417969 20.429688 C 7.8125 20.097656 8.042969 19.617188 8.042969 19.101562 L 8.042969 12.375 C 8.042969 8.5625 10.949219 5.441406 14.664062 5.269531 C 16.589844 5.179688 18.410156 5.855469 19.800781 7.167969 C 21.1875 8.484375 21.949219 10.253906 21.949219 12.164062 L 21.949219 19.101562 C 21.949219 19.613281 22.179688 20.097656 22.578125 20.429688 L 25.101562 22.519531 Z M 4.890625 22.519531 " fill-opacity="1" fill-rule="nonzero"/></g></svg>