<svg xmlns="http://www.w3.org/2000/svg" xmlns:xlink="http://www.w3.org/1999/xlink" width="40" zoomAndPan="magnify" viewBox="0 0 30 30.000001" height="40" preserveAspectRatio="xMidYMid meet" version="1.0"><defs><clipPath id="89f4363bcb"><path d="M 1.277344 5.859375 L 28.859375 5.859375 L 28.859375 23.277344 L 1.277344 23.277344 Z M 1.277344 5.859375 " clip-rule="nonzero"/></clipPath></defs><path fill="#828080" d="M 15.207031 18.949219 L 20.308594 18.949219 C 20.417969 18.949219 20.511719 18.914062 20.589844 18.835938 C 20.664062 18.757812 20.703125 18.664062 20.703125 18.554688 C 20.703125 18.449219 20.664062 18.355469 20.589844 18.277344 C 20.511719 18.199219 20.417969 18.164062 20.308594 18.164062 L 15.207031 18.164062 C 15.097656 18.164062 15.003906 18.199219 14.925781 18.277344 C 14.851562 18.355469 14.8125 18.449219 14.8125 18.554688 C 14.8125 18.664062 14.851562 18.757812 14.925781 18.835938 C 15.003906 18.914062 15.097656 18.949219 15.207031 18.949219 Z M 15.207031 18.949219 " fill-opacity="1" fill-rule="nonzero"/><path fill="#828080" d="M 15.207031 17.078125 L 25.375 17.078125 C 25.484375 17.078125 25.578125 17.042969 25.65625 16.964844 C 25.730469 16.886719 25.769531 16.792969 25.769531 16.683594 C 25.769531 16.578125 25.730469 16.484375 25.65625 16.40625 C 25.578125 16.328125 25.484375 16.289062 25.375 16.289062 L 15.207031 16.289062 C 15.097656 16.289062 15.003906 16.328125 14.925781 16.40625 C 14.851562 16.484375 14.8125 16.578125 14.8125 16.683594 C 14.8125 16.792969 14.851562 16.886719 14.925781 16.964844 C 15.003906 17.042969 15.097656 17.078125 15.207031 17.078125 Z M 15.207031 17.078125 " fill-opacity="1" fill-rule="nonzero"/><path fill="#828080" d="M 4.6875 20.574219 L 12.742188 20.574219 C 12.851562 20.574219 12.945312 20.535156 13.019531 20.457031 C 13.097656 20.378906 13.136719 20.289062 13.136719 20.179688 L 13.136719 18.621094 L 10.320312 18.621094 C 10.210938 18.621094 10.117188 18.582031 10.039062 18.503906 C 9.964844 18.425781 9.925781 18.335938 9.925781 18.226562 C 9.925781 18.117188 9.964844 18.023438 10.039062 17.945312 C 10.117188 17.871094 10.210938 17.832031 10.320312 17.832031 L 13.136719 17.832031 L 13.136719 16.84375 L 10.320312 16.84375 C 10.210938 16.84375 10.117188 16.804688 10.039062 16.726562 C 9.964844 16.652344 9.925781 16.558594 9.925781 16.449219 C 9.925781 16.339844 9.964844 16.246094 10.039062 16.167969 C 10.117188 16.09375 10.210938 16.054688 10.320312 16.054688 L 13.136719 16.054688 L 13.136719 14.496094 C 13.136719 14.386719 13.097656 14.292969 13.019531 14.214844 C 12.945312 14.140625 12.851562 14.101562 12.742188 14.101562 L 4.6875 14.101562 C 4.578125 14.101562 4.484375 14.140625 4.40625 14.214844 C 4.332031 14.292969 4.292969 14.386719 4.292969 14.496094 L 4.292969 16.054688 L 7.128906 16.054688 C 7.238281 16.054688 7.328125 16.09375 7.40625 16.167969 C 7.484375 16.246094 7.519531 16.339844 7.519531 16.449219 C 7.519531 16.558594 7.484375 16.652344 7.40625 16.726562 C 7.328125 16.804688 7.238281 16.84375 7.128906 16.84375 L 4.292969 16.84375 L 4.292969 17.832031 L 7.128906 17.832031 C 7.238281 17.832031 7.328125 17.871094 7.40625 17.945312 C 7.484375 18.023438 7.519531 18.117188 7.519531 18.226562 C 7.519531 18.335938 7.484375 18.425781 7.40625 18.503906 C 7.328125 18.582031 7.238281 18.621094 7.128906 18.621094 L 4.292969 18.621094 L 4.292969 20.179688 C 4.292969 20.289062 4.332031 20.378906 4.40625 20.457031 C 4.484375 20.535156 4.578125 20.574219 4.6875 20.574219 Z M 4.6875 20.574219 " fill-opacity="1" fill-rule="nonzero"/><g clip-path="url(#89f4363bcb)"><path fill="#828080" d="M 26.972656 5.859375 L 3.125 5.859375 C 2.894531 5.859375 2.667969 5.902344 2.453125 5.992188 C 2.238281 6.082031 2.046875 6.210938 1.882812 6.375 C 1.71875 6.542969 1.589844 6.730469 1.5 6.949219 C 1.414062 7.164062 1.367188 7.386719 1.367188 7.621094 L 1.367188 21.523438 C 1.371094 21.753906 1.414062 21.980469 1.503906 22.195312 C 1.59375 22.410156 1.722656 22.597656 1.886719 22.761719 C 2.050781 22.925781 2.242188 23.054688 2.457031 23.144531 C 2.671875 23.230469 2.894531 23.277344 3.125 23.277344 L 26.972656 23.277344 C 27.207031 23.277344 27.429688 23.230469 27.648438 23.140625 C 27.863281 23.050781 28.050781 22.925781 28.21875 22.757812 C 28.382812 22.59375 28.507812 22.402344 28.597656 22.1875 C 28.6875 21.972656 28.730469 21.746094 28.730469 21.511719 L 28.730469 7.628906 C 28.734375 7.394531 28.6875 7.167969 28.601562 6.953125 C 28.511719 6.734375 28.382812 6.542969 28.21875 6.378906 C 28.054688 6.210938 27.863281 6.085938 27.648438 5.992188 C 27.433594 5.902344 27.207031 5.859375 26.972656 5.859375 Z M 27.945312 21.523438 C 27.945312 21.652344 27.917969 21.777344 27.871094 21.894531 C 27.820312 22.015625 27.75 22.121094 27.660156 22.210938 C 27.570312 22.304688 27.464844 22.375 27.34375 22.421875 C 27.226562 22.472656 27.101562 22.496094 26.972656 22.5 L 3.125 22.5 C 2.859375 22.496094 2.632812 22.398438 2.445312 22.207031 C 2.257812 22.019531 2.164062 21.789062 2.164062 21.523438 L 2.164062 12.109375 L 27.945312 12.109375 Z M 27.945312 8.75 L 2.164062 8.75 L 2.164062 7.621094 C 2.164062 7.355469 2.257812 7.128906 2.445312 6.9375 C 2.632812 6.746094 2.859375 6.652344 3.125 6.648438 L 26.972656 6.648438 C 27.101562 6.648438 27.226562 6.671875 27.34375 6.722656 C 27.464844 6.773438 27.570312 6.84375 27.660156 6.933594 C 27.75 7.023438 27.820312 7.128906 27.871094 7.25 C 27.917969 7.367188 27.945312 7.492188 27.945312 7.621094 Z M 27.945312 8.75 " fill-opacity="1" fill-rule="nonzero"/></g></svg>