<svg xmlns="http://www.w3.org/2000/svg" xmlns:xlink="http://www.w3.org/1999/xlink" width="40" zoomAndPan="magnify" viewBox="0 0 30 30.000001" height="40" preserveAspectRatio="xMidYMid meet" version="1.0"><defs><clipPath id="216ccdaf46"><path d="M 2 2.25 L 28 2.25 L 28 26.929688 L 2 26.929688 Z M 2 2.25 " clip-rule="nonzero"/></clipPath></defs><g clip-path="url(#216ccdaf46)"><path fill="#1ba8e3" d="M 20.734375 2.625 C 21.574219 2.25 22.648438 2.738281 22.945312 3.609375 C 23.726562 5.554688 24.488281 7.507812 25.277344 9.453125 C 25.894531 9.453125 26.605469 9.390625 27.082031 9.878906 C 28.027344 10.707031 27.496094 12.082031 27.703125 13.164062 L 27.703125 23.101562 C 27.488281 24.179688 28.042969 25.601562 27.082031 26.40625 C 26.5625 26.929688 25.789062 26.824219 25.125 26.832031 C 18.105469 26.820312 11.085938 26.832031 4.070312 26.828125 C 3.296875 26.867188 2.597656 26.285156 2.386719 25.550781 C 2.367188 24.75 2.332031 23.144531 2.308594 22.339844 L 2.308594 13.230469 C 2.496094 12.015625 1.941406 10.339844 3.269531 9.617188 C 9.085938 7.273438 14.914062 4.957031 20.734375 2.625 Z M 3.480469 10.640625 C 3.390625 11.300781 3.417969 11.96875 3.421875 12.632812 C 11.148438 12.640625 18.871094 12.636719 26.597656 12.636719 C 26.59375 12.097656 26.613281 11.5625 26.585938 11.027344 C 26.628906 10.746094 26.410156 10.507812 26.132812 10.53125 C 19.179688 10.515625 12.226562 10.527344 5.277344 10.523438 C 4.675781 10.511719 4.066406 10.5 3.480469 10.640625 Z M 3.421875 16.949219 C 3.425781 19.71875 3.410156 22.488281 3.425781 25.257812 C 3.367188 25.65625 3.78125 25.808594 4.101562 25.761719 C 11.375 25.761719 18.652344 25.761719 25.925781 25.761719 C 26.238281 25.804688 26.648438 25.652344 26.585938 25.261719 C 26.605469 22.488281 26.589844 19.71875 26.59375 16.949219 C 18.871094 16.949219 11.144531 16.949219 3.421875 16.949219 Z M 3.421875 16.949219 " fill-opacity="1" fill-rule="nonzero"/></g><path fill="#1ba8e3" d="M 18.851562 22.597656 C 18.285156 21.421875 19.183594 19.976562 20.390625 19.71875 C 20.984375 19.558594 21.59375 19.777344 22.089844 20.109375 C 22.503906 19.914062 22.917969 19.660156 23.390625 19.664062 C 24.53125 19.652344 25.574219 20.695312 25.554688 21.84375 C 25.515625 22.964844 24.5 23.960938 23.386719 23.945312 C 22.917969 23.941406 22.507812 23.695312 22.101562 23.488281 C 21.046875 24.386719 19.351562 23.84375 18.851562 22.597656 Z M 19.738281 21.851562 C 19.675781 22.742188 20.847656 23.199219 21.476562 22.648438 C 21.253906 22.082031 21.285156 21.476562 21.46875 20.902344 C 20.75 20.445312 19.613281 20.910156 19.738281 21.851562 Z M 22.84375 20.863281 C 22.09375 21.347656 22.265625 22.699219 23.175781 22.851562 C 23.90625 23.0625 24.65625 22.398438 24.488281 21.640625 C 24.460938 20.832031 23.46875 20.515625 22.84375 20.863281 Z M 22.84375 20.863281 " fill-opacity="1" fill-rule="nonzero"/><path fill="#1ba8e3" d="M 5.636719 21.304688 C 8.332031 21.234375 11.039062 21.28125 13.738281 21.28125 C 14.414062 21.230469 14.421875 22.398438 13.730469 22.328125 C 11.085938 22.339844 8.441406 22.351562 5.796875 22.324219 C 5.242188 22.355469 5.121094 21.476562 5.636719 21.304688 Z M 5.636719 21.304688 " fill-opacity="1" fill-rule="nonzero"/><path fill="#1ba8e3" d="M 5.636719 22.925781 C 8.332031 22.855469 11.039062 22.90625 13.738281 22.902344 C 14.414062 22.851562 14.421875 24.019531 13.730469 23.953125 C 11.085938 23.960938 8.441406 23.972656 5.796875 23.949219 C 5.242188 23.976562 5.121094 23.097656 5.636719 22.925781 Z M 5.636719 22.925781 " fill-opacity="1" fill-rule="nonzero"/><path fill="#1ba8e3" d="M 5.636719 19.382812 C 8.332031 19.308594 11.039062 19.359375 13.738281 19.359375 C 14.414062 19.304688 14.421875 20.476562 13.730469 20.40625 C 11.085938 20.417969 8.441406 20.429688 5.796875 20.402344 C 5.242188 20.429688 5.121094 19.550781 5.636719 19.382812 Z M 5.636719 19.382812 " fill-opacity="1" fill-rule="nonzero"/></svg>