<svg xmlns="http://www.w3.org/2000/svg" xmlns:xlink="http://www.w3.org/1999/xlink" width="40" zoomAndPan="magnify" viewBox="0 0 30 30.000001" height="40" preserveAspectRatio="xMidYMid meet" version="1.0"><defs><clipPath id="e133080936"><path d="M 17 7 L 28.445312 7 L 28.445312 22 L 17 22 Z M 17 7 " clip-rule="nonzero"/></clipPath><clipPath id="7fe5c02448"><path d="M 22 3.917969 L 28 3.917969 L 28 22 L 22 22 Z M 22 3.917969 " clip-rule="nonzero"/></clipPath><clipPath id="325dfa71bd"><path d="M 1.589844 13 L 13 13 L 13 22 L 1.589844 22 Z M 1.589844 13 " clip-rule="nonzero"/></clipPath><clipPath id="2df6fc9367"><path d="M 9 15 L 21 15 L 21 27.144531 L 9 27.144531 Z M 9 15 " clip-rule="nonzero"/></clipPath></defs><path fill="#1ba8e3" d="M 16.808594 14.640625 C 16.683594 14.640625 16.578125 14.59375 16.492188 14.507812 C 16.402344 14.421875 16.359375 14.316406 16.359375 14.191406 L 16.359375 11.511719 L 13.675781 11.511719 L 13.675781 14.191406 C 13.675781 14.316406 13.632812 14.421875 13.542969 14.507812 C 13.457031 14.59375 13.351562 14.640625 13.226562 14.640625 C 13.105469 14.640625 13 14.59375 12.910156 14.507812 C 12.824219 14.421875 12.78125 14.316406 12.78125 14.191406 L 12.78125 11.066406 C 12.78125 10.941406 12.824219 10.835938 12.910156 10.75 C 13 10.664062 13.105469 10.621094 13.226562 10.621094 L 16.808594 10.621094 C 16.929688 10.621094 17.035156 10.664062 17.125 10.75 C 17.210938 10.835938 17.253906 10.941406 17.253906 11.066406 L 17.253906 14.191406 C 17.253906 14.316406 17.210938 14.421875 17.125 14.507812 C 17.035156 14.59375 16.929688 14.640625 16.808594 14.640625 Z M 16.808594 14.640625 " fill-opacity="1" fill-rule="nonzero"/><g clip-path="url(#e133080936)"><path fill="#1ba8e3" d="M 27.996094 21.339844 L 21.730469 21.339844 C 21.609375 21.339844 21.503906 21.292969 21.414062 21.207031 C 21.328125 21.121094 21.285156 21.015625 21.285156 20.890625 L 21.285156 8.386719 L 18.597656 8.386719 L 18.597656 14.640625 C 18.597656 14.761719 18.554688 14.867188 18.46875 14.953125 C 18.378906 15.042969 18.273438 15.085938 18.152344 15.085938 C 18.027344 15.085938 17.921875 15.042969 17.835938 14.953125 C 17.746094 14.867188 17.703125 14.761719 17.703125 14.640625 L 17.703125 7.941406 C 17.703125 7.816406 17.746094 7.710938 17.835938 7.625 C 17.921875 7.535156 18.027344 7.492188 18.152344 7.492188 L 21.730469 7.492188 C 21.855469 7.492188 21.960938 7.535156 22.046875 7.625 C 22.136719 7.710938 22.179688 7.816406 22.179688 7.941406 L 22.179688 20.445312 L 27.996094 20.445312 C 28.121094 20.445312 28.226562 20.488281 28.3125 20.574219 C 28.402344 20.664062 28.445312 20.769531 28.445312 20.890625 C 28.445312 21.015625 28.402344 21.121094 28.3125 21.207031 C 28.226562 21.292969 28.121094 21.339844 27.996094 21.339844 Z M 27.996094 21.339844 " fill-opacity="1" fill-rule="nonzero"/></g><g clip-path="url(#7fe5c02448)"><path fill="#1ba8e3" d="M 26.65625 21.339844 L 23.074219 21.339844 C 22.949219 21.339844 22.84375 21.292969 22.757812 21.207031 C 22.671875 21.121094 22.625 21.015625 22.625 20.890625 L 22.625 4.367188 C 22.625 4.242188 22.671875 4.136719 22.757812 4.050781 C 22.84375 3.964844 22.949219 3.921875 23.074219 3.921875 L 26.65625 3.921875 C 26.777344 3.921875 26.882812 3.964844 26.972656 4.050781 C 27.058594 4.136719 27.101562 4.242188 27.101562 4.367188 L 27.101562 20.890625 C 27.101562 21.015625 27.058594 21.121094 26.972656 21.207031 C 26.882812 21.292969 26.777344 21.339844 26.65625 21.339844 Z M 23.523438 20.445312 L 26.207031 20.445312 L 26.207031 4.8125 L 23.523438 4.8125 Z M 23.523438 20.445312 " fill-opacity="1" fill-rule="nonzero"/></g><g clip-path="url(#325dfa71bd)"><path fill="#1ba8e3" d="M 8.304688 21.339844 L 2.039062 21.339844 C 1.914062 21.339844 1.808594 21.292969 1.722656 21.207031 C 1.632812 21.121094 1.589844 21.015625 1.589844 20.890625 C 1.589844 20.769531 1.632812 20.664062 1.722656 20.574219 C 1.808594 20.488281 1.914062 20.445312 2.039062 20.445312 L 7.855469 20.445312 L 7.855469 13.746094 C 7.855469 13.621094 7.898438 13.515625 7.988281 13.429688 C 8.074219 13.34375 8.179688 13.300781 8.304688 13.300781 L 11.882812 13.300781 C 12.007812 13.300781 12.113281 13.34375 12.199219 13.429688 C 12.289062 13.515625 12.332031 13.621094 12.332031 13.746094 L 12.332031 15.085938 C 12.332031 15.207031 12.289062 15.3125 12.199219 15.402344 C 12.113281 15.488281 12.007812 15.53125 11.882812 15.53125 C 11.761719 15.53125 11.65625 15.488281 11.566406 15.402344 C 11.480469 15.3125 11.4375 15.207031 11.4375 15.085938 L 11.4375 14.191406 L 8.75 14.191406 L 8.75 20.890625 C 8.75 21.015625 8.707031 21.121094 8.621094 21.207031 C 8.53125 21.292969 8.425781 21.339844 8.304688 21.339844 Z M 8.304688 21.339844 " fill-opacity="1" fill-rule="nonzero"/></g><path fill="#1ba8e3" d="M 6.960938 21.339844 L 3.378906 21.339844 C 3.257812 21.339844 3.152344 21.292969 3.0625 21.207031 C 2.976562 21.121094 2.933594 21.015625 2.933594 20.890625 L 2.933594 16.871094 C 2.933594 16.75 2.976562 16.644531 3.0625 16.554688 C 3.152344 16.46875 3.257812 16.425781 3.378906 16.425781 L 6.960938 16.425781 C 7.085938 16.425781 7.191406 16.46875 7.277344 16.554688 C 7.363281 16.644531 7.410156 16.75 7.410156 16.871094 L 7.410156 20.890625 C 7.410156 21.015625 7.363281 21.121094 7.277344 21.207031 C 7.191406 21.292969 7.085938 21.339844 6.960938 21.339844 Z M 3.828125 20.445312 L 6.511719 20.445312 L 6.511719 17.320312 L 3.828125 17.320312 Z M 3.828125 20.445312 " fill-opacity="1" fill-rule="nonzero"/><g clip-path="url(#2df6fc9367)"><path fill="#1ba8e3" d="M 15.015625 27.144531 C 14.636719 27.144531 14.257812 27.105469 13.882812 27.03125 C 13.507812 26.957031 13.144531 26.847656 12.789062 26.703125 C 12.4375 26.554688 12.101562 26.378906 11.785156 26.164062 C 11.46875 25.953125 11.171875 25.714844 10.902344 25.445312 C 10.632812 25.175781 10.390625 24.878906 10.179688 24.5625 C 9.96875 24.246094 9.789062 23.914062 9.640625 23.558594 C 9.496094 23.207031 9.386719 22.84375 9.3125 22.472656 C 9.234375 22.097656 9.199219 21.71875 9.199219 21.339844 C 9.199219 20.957031 9.234375 20.578125 9.3125 20.207031 C 9.386719 19.832031 9.496094 19.46875 9.640625 19.117188 C 9.789062 18.765625 9.96875 18.429688 10.179688 18.113281 C 10.390625 17.796875 10.632812 17.503906 10.902344 17.234375 C 11.171875 16.964844 11.46875 16.722656 11.785156 16.511719 C 12.101562 16.300781 12.4375 16.121094 12.789062 15.972656 C 13.144531 15.828125 13.507812 15.71875 13.882812 15.644531 C 14.257812 15.570312 14.636719 15.53125 15.015625 15.53125 C 15.398438 15.53125 15.777344 15.570312 16.152344 15.644531 C 16.527344 15.71875 16.890625 15.828125 17.246094 15.972656 C 17.597656 16.121094 17.933594 16.300781 18.25 16.511719 C 18.566406 16.722656 18.863281 16.964844 19.132812 17.234375 C 19.402344 17.503906 19.644531 17.796875 19.855469 18.113281 C 20.066406 18.429688 20.246094 18.765625 20.394531 19.117188 C 20.539062 19.46875 20.648438 19.832031 20.722656 20.207031 C 20.796875 20.578125 20.835938 20.957031 20.835938 21.339844 C 20.835938 21.71875 20.796875 22.097656 20.722656 22.46875 C 20.648438 22.84375 20.539062 23.207031 20.390625 23.558594 C 20.246094 23.910156 20.066406 24.246094 19.851562 24.5625 C 19.640625 24.878906 19.398438 25.171875 19.128906 25.441406 C 18.859375 25.710938 18.566406 25.953125 18.25 26.164062 C 17.929688 26.375 17.597656 26.554688 17.242188 26.699219 C 16.890625 26.847656 16.527344 26.957031 16.152344 27.03125 C 15.777344 27.105469 15.398438 27.144531 15.015625 27.144531 Z M 15.015625 16.425781 C 14.695312 16.425781 14.375 16.457031 14.058594 16.519531 C 13.738281 16.582031 13.433594 16.675781 13.132812 16.800781 C 12.835938 16.921875 12.550781 17.074219 12.28125 17.253906 C 12.011719 17.433594 11.765625 17.636719 11.535156 17.863281 C 11.308594 18.09375 11.101562 18.339844 10.925781 18.609375 C 10.746094 18.878906 10.59375 19.160156 10.46875 19.457031 C 10.34375 19.757812 10.25 20.0625 10.1875 20.378906 C 10.125 20.695312 10.09375 21.015625 10.09375 21.339844 C 10.09375 21.660156 10.125 21.980469 10.1875 22.296875 C 10.25 22.613281 10.34375 22.921875 10.46875 23.21875 C 10.59375 23.515625 10.746094 23.800781 10.925781 24.066406 C 11.101562 24.335938 11.308594 24.582031 11.535156 24.8125 C 11.765625 25.039062 12.011719 25.242188 12.28125 25.421875 C 12.550781 25.601562 12.835938 25.753906 13.132812 25.875 C 13.433594 26 13.738281 26.09375 14.058594 26.15625 C 14.375 26.21875 14.695312 26.25 15.015625 26.25 C 15.339844 26.25 15.660156 26.21875 15.976562 26.15625 C 16.296875 26.09375 16.601562 26 16.902344 25.875 C 17.199219 25.753906 17.484375 25.601562 17.753906 25.421875 C 18.023438 25.242188 18.269531 25.039062 18.5 24.8125 C 18.726562 24.582031 18.929688 24.335938 19.109375 24.066406 C 19.289062 23.800781 19.441406 23.515625 19.566406 23.21875 C 19.691406 22.921875 19.785156 22.613281 19.847656 22.296875 C 19.910156 21.980469 19.941406 21.660156 19.941406 21.339844 C 19.941406 21.015625 19.910156 20.695312 19.84375 20.378906 C 19.78125 20.0625 19.6875 19.757812 19.566406 19.460938 C 19.441406 19.160156 19.289062 18.878906 19.109375 18.609375 C 18.929688 18.34375 18.726562 18.09375 18.496094 17.867188 C 18.269531 17.636719 18.019531 17.433594 17.75 17.253906 C 17.484375 17.074219 17.199219 16.925781 16.902344 16.800781 C 16.601562 16.675781 16.292969 16.585938 15.976562 16.519531 C 15.660156 16.457031 15.339844 16.425781 15.015625 16.425781 Z M 15.015625 16.425781 " fill-opacity="1" fill-rule="nonzero"/></g><path fill="#1ba8e3" d="M 15.015625 21.785156 C 14.839844 21.785156 14.667969 21.75 14.503906 21.683594 C 14.339844 21.613281 14.195312 21.519531 14.066406 21.390625 C 13.941406 21.265625 13.84375 21.121094 13.777344 20.957031 C 13.707031 20.792969 13.675781 20.621094 13.675781 20.445312 C 13.675781 20.265625 13.707031 20.097656 13.777344 19.933594 C 13.84375 19.769531 13.941406 19.625 14.066406 19.496094 C 14.195312 19.371094 14.339844 19.273438 14.503906 19.207031 C 14.667969 19.140625 14.839844 19.105469 15.015625 19.105469 C 15.195312 19.105469 15.367188 19.140625 15.53125 19.207031 C 15.695312 19.273438 15.839844 19.371094 15.96875 19.496094 C 16.09375 19.625 16.191406 19.769531 16.257812 19.933594 C 16.324219 20.097656 16.359375 20.265625 16.359375 20.445312 C 16.359375 20.566406 16.316406 20.671875 16.230469 20.761719 C 16.140625 20.847656 16.035156 20.890625 15.914062 20.890625 C 15.789062 20.890625 15.683594 20.847656 15.597656 20.761719 C 15.507812 20.671875 15.464844 20.566406 15.464844 20.445312 C 15.464844 20.320312 15.421875 20.214844 15.335938 20.128906 C 15.246094 20.042969 15.140625 20 15.015625 20 C 14.894531 20 14.789062 20.042969 14.699219 20.128906 C 14.613281 20.214844 14.570312 20.320312 14.570312 20.445312 C 14.570312 20.566406 14.613281 20.671875 14.699219 20.761719 C 14.789062 20.847656 14.894531 20.890625 15.015625 20.890625 C 15.140625 20.890625 15.246094 20.933594 15.335938 21.023438 C 15.421875 21.109375 15.464844 21.214844 15.464844 21.339844 C 15.464844 21.460938 15.421875 21.566406 15.335938 21.652344 C 15.246094 21.742188 15.140625 21.785156 15.015625 21.785156 Z M 15.015625 21.785156 " fill-opacity="1" fill-rule="nonzero"/><path fill="#1ba8e3" d="M 15.015625 23.570312 C 14.839844 23.570312 14.667969 23.539062 14.503906 23.46875 C 14.339844 23.402344 14.195312 23.304688 14.066406 23.179688 C 13.941406 23.054688 13.84375 22.910156 13.777344 22.742188 C 13.707031 22.578125 13.675781 22.410156 13.675781 22.230469 C 13.675781 22.109375 13.71875 22.003906 13.804688 21.914062 C 13.894531 21.828125 14 21.785156 14.121094 21.785156 C 14.246094 21.785156 14.351562 21.828125 14.4375 21.914062 C 14.527344 22.003906 14.570312 22.109375 14.570312 22.230469 C 14.570312 22.355469 14.613281 22.460938 14.699219 22.546875 C 14.789062 22.632812 14.894531 22.679688 15.015625 22.679688 C 15.140625 22.679688 15.246094 22.632812 15.335938 22.546875 C 15.421875 22.460938 15.464844 22.355469 15.464844 22.230469 C 15.464844 22.109375 15.421875 22.003906 15.335938 21.914062 C 15.246094 21.828125 15.140625 21.785156 15.015625 21.785156 C 14.894531 21.785156 14.789062 21.742188 14.699219 21.652344 C 14.613281 21.566406 14.570312 21.460938 14.570312 21.339844 C 14.570312 21.214844 14.613281 21.109375 14.699219 21.023438 C 14.789062 20.933594 14.894531 20.890625 15.015625 20.890625 C 15.195312 20.890625 15.367188 20.925781 15.53125 20.992188 C 15.695312 21.0625 15.839844 21.160156 15.96875 21.285156 C 16.09375 21.410156 16.191406 21.554688 16.257812 21.71875 C 16.324219 21.882812 16.359375 22.054688 16.359375 22.230469 C 16.359375 22.410156 16.324219 22.578125 16.257812 22.742188 C 16.191406 22.910156 16.09375 23.054688 15.96875 23.179688 C 15.839844 23.304688 15.695312 23.402344 15.53125 23.46875 C 15.367188 23.539062 15.195312 23.570312 15.015625 23.570312 Z M 15.015625 23.570312 " fill-opacity="1" fill-rule="nonzero"/><path fill="#1ba8e3" d="M 15.015625 20 C 14.894531 20 14.789062 19.953125 14.699219 19.867188 C 14.613281 19.78125 14.570312 19.675781 14.570312 19.550781 L 14.570312 19.105469 C 14.570312 18.980469 14.613281 18.875 14.699219 18.789062 C 14.789062 18.703125 14.894531 18.660156 15.015625 18.660156 C 15.140625 18.660156 15.246094 18.703125 15.335938 18.789062 C 15.421875 18.875 15.464844 18.980469 15.464844 19.105469 L 15.464844 19.550781 C 15.464844 19.675781 15.421875 19.78125 15.335938 19.867188 C 15.246094 19.953125 15.140625 20 15.015625 20 Z M 15.015625 20 " fill-opacity="1" fill-rule="nonzero"/><path fill="#1ba8e3" d="M 15.015625 24.019531 C 14.894531 24.019531 14.789062 23.972656 14.699219 23.886719 C 14.613281 23.800781 14.570312 23.695312 14.570312 23.570312 L 14.570312 23.125 C 14.570312 23 14.613281 22.894531 14.699219 22.808594 C 14.789062 22.722656 14.894531 22.679688 15.015625 22.679688 C 15.140625 22.679688 15.246094 22.722656 15.335938 22.808594 C 15.421875 22.894531 15.464844 23 15.464844 23.125 L 15.464844 23.570312 C 15.464844 23.695312 15.421875 23.800781 15.335938 23.886719 C 15.246094 23.972656 15.140625 24.019531 15.015625 24.019531 Z M 15.015625 24.019531 " fill-opacity="1" fill-rule="nonzero"/></svg>