<svg xmlns="http://www.w3.org/2000/svg" xmlns:xlink="http://www.w3.org/1999/xlink" width="40" zoomAndPan="magnify" viewBox="0 0 30 30.000001" height="40" preserveAspectRatio="xMidYMid meet" version="1.0"><defs><clipPath id="6fcf401a33"><path d="M 13 5.105469 L 24 5.105469 L 24 16 L 13 16 Z M 13 5.105469 " clip-rule="nonzero"/></clipPath><clipPath id="ebfed1f841"><path d="M 1.933594 15 L 28 15 L 28 26.15625 L 1.933594 26.15625 Z M 1.933594 15 " clip-rule="nonzero"/></clipPath></defs><g clip-path="url(#6fcf401a33)"><path fill="#1ba8e3" d="M 18.738281 15.457031 C 21.585938 15.457031 23.902344 13.136719 23.902344 10.28125 C 23.902344 7.429688 21.585938 5.105469 18.738281 5.105469 C 15.886719 5.105469 13.570312 7.429688 13.570312 10.28125 C 13.570312 13.136719 15.886719 15.457031 18.738281 15.457031 Z M 14.429688 10.28125 C 14.429688 7.902344 16.359375 5.96875 18.738281 5.96875 C 21.113281 5.96875 23.042969 7.902344 23.042969 10.28125 C 23.042969 12.660156 21.113281 14.597656 18.738281 14.597656 C 16.359375 14.597656 14.429688 12.660156 14.429688 10.28125 Z M 14.429688 10.28125 " fill-opacity="1" fill-rule="nonzero"/></g><path fill="#1ba8e3" d="M 17.472656 12.652344 C 17.699219 12.871094 17.996094 13.023438 18.320312 13.089844 L 18.320312 13.546875 C 18.316406 13.777344 18.503906 13.96875 18.734375 13.96875 L 18.738281 13.96875 C 18.964844 13.96875 19.152344 13.785156 19.15625 13.554688 L 19.15625 13.089844 C 19.484375 13.019531 19.78125 12.867188 20 12.648438 C 20.257812 12.394531 20.402344 12.070312 20.402344 11.734375 L 20.402344 11.550781 C 20.402344 11.105469 20.148438 10.683594 19.730469 10.421875 L 18.238281 9.496094 C 18.066406 9.390625 17.964844 9.238281 17.964844 9.082031 L 17.964844 8.792969 C 17.964844 8.652344 18.042969 8.515625 18.183594 8.410156 C 18.335938 8.296875 18.542969 8.234375 18.765625 8.234375 C 18.984375 8.234375 19.191406 8.296875 19.347656 8.410156 C 19.488281 8.515625 19.566406 8.652344 19.566406 8.792969 L 19.566406 9.117188 C 19.566406 9.347656 19.753906 9.535156 19.984375 9.535156 C 20.214844 9.535156 20.402344 9.347656 20.402344 9.117188 L 20.402344 8.792969 C 20.402344 8.15625 19.894531 7.601562 19.183594 7.441406 L 19.183594 7.011719 C 19.183594 6.78125 18.996094 6.59375 18.765625 6.59375 C 18.535156 6.59375 18.347656 6.78125 18.347656 7.011719 L 18.347656 7.441406 C 17.632812 7.601562 17.128906 8.15625 17.128906 8.792969 L 17.128906 9.082031 C 17.128906 9.527344 17.378906 9.949219 17.800781 10.210938 L 19.289062 11.132812 C 19.464844 11.242188 19.566406 11.394531 19.566406 11.550781 L 19.566406 11.734375 C 19.566406 11.875 19.488281 12.011719 19.347656 12.117188 C 19.191406 12.230469 18.984375 12.292969 18.765625 12.292969 L 18.707031 12.292969 C 18.488281 12.292969 18.28125 12.230469 18.128906 12.117188 C 17.984375 12.011719 17.90625 11.875 17.90625 11.734375 L 17.90625 11.554688 C 17.90625 11.324219 17.71875 11.136719 17.488281 11.136719 C 17.257812 11.136719 17.070312 11.324219 17.070312 11.554688 L 17.070312 11.734375 C 17.070312 12.074219 17.214844 12.398438 17.472656 12.652344 Z M 17.472656 12.652344 " fill-opacity="1" fill-rule="nonzero"/><g clip-path="url(#ebfed1f841)"><path fill="#1ba8e3" d="M 27.453125 16.699219 C 26.871094 16.050781 25.9375 15.988281 25.285156 16.546875 L 21.445312 19.65625 C 21.449219 19.621094 21.449219 19.582031 21.449219 19.542969 C 21.433594 18.617188 20.707031 17.863281 19.828125 17.863281 L 15.566406 17.863281 C 15.320312 17.863281 15.089844 17.71875 14.945312 17.480469 C 14.914062 17.429688 14.875 17.386719 14.828125 17.351562 C 13.082031 15.972656 10.738281 15.792969 8.730469 16.683594 L 7.988281 17.015625 L 6.496094 17.015625 L 6.496094 16.332031 C 6.496094 16.089844 6.300781 15.890625 6.054688 15.890625 L 2.382812 15.890625 C 2.136719 15.890625 1.9375 16.089844 1.9375 16.332031 L 1.9375 24.527344 C 1.9375 24.773438 2.136719 24.972656 2.382812 24.972656 L 6.054688 24.972656 C 6.296875 24.972656 6.496094 24.773438 6.496094 24.527344 L 6.496094 23.824219 L 8.011719 23.824219 L 13.257812 25.492188 C 14.449219 25.933594 15.445312 26.15625 16.445312 26.15625 C 17.242188 26.15625 18.042969 26.011719 18.941406 25.730469 C 19.023438 25.703125 19.109375 25.675781 19.191406 25.648438 C 19.375 25.578125 19.550781 25.496094 19.722656 25.398438 C 19.863281 25.320312 19.996094 25.230469 20.121094 25.128906 L 27.449219 19.136719 C 27.476562 19.117188 27.496094 19.09375 27.515625 19.070312 C 28.0625 18.386719 28.035156 17.347656 27.453125 16.699219 Z M 5.613281 24.085938 L 2.824219 24.085938 L 2.824219 16.777344 L 5.613281 16.777344 Z M 26.851562 18.484375 L 20.011719 24.070312 C 19.417969 24.558594 18.714844 24.90625 17.964844 25.082031 C 16.480469 25.429688 15.253906 25.289062 13.558594 24.660156 C 13.550781 24.65625 13.542969 24.65625 13.539062 24.652344 L 8.214844 22.960938 C 8.171875 22.945312 8.128906 22.9375 8.082031 22.9375 L 6.496094 22.9375 L 6.496094 17.902344 L 8.082031 17.902344 C 8.144531 17.902344 8.203125 17.890625 8.261719 17.863281 L 9.089844 17.496094 C 10.78125 16.742188 12.699219 16.941406 14.242188 18.019531 C 14.550781 18.476562 15.039062 18.75 15.566406 18.75 L 19.828125 18.75 C 20.226562 18.75 20.554688 19.113281 20.5625 19.558594 C 20.566406 19.804688 20.480469 20.039062 20.320312 20.199219 C 20.242188 20.28125 20.152344 20.335938 20.054688 20.371094 C 19.925781 20.390625 19.800781 20.402344 19.671875 20.402344 L 14.929688 20.402344 C 14.6875 20.402344 14.484375 20.59375 14.480469 20.839844 C 14.476562 21.085938 14.675781 21.285156 14.925781 21.285156 L 19.867188 21.285156 C 20 21.285156 20.128906 21.269531 20.253906 21.234375 C 20.808594 21.136719 21.328125 20.894531 21.785156 20.523438 L 25.84375 17.234375 C 25.847656 17.230469 25.851562 17.226562 25.855469 17.222656 C 26.140625 16.976562 26.535156 17.007812 26.792969 17.292969 C 27.078125 17.609375 27.101562 18.136719 26.851562 18.484375 Z M 26.851562 18.484375 " fill-opacity="1" fill-rule="nonzero"/></g></svg>