<svg xmlns="http://www.w3.org/2000/svg" xmlns:xlink="http://www.w3.org/1999/xlink" width="40" zoomAndPan="magnify" viewBox="0 0 30 30.000001" height="40" preserveAspectRatio="xMidYMid meet" version="1.0"><defs><clipPath id="180b6c6f86"><path d="M 2.210938 4.09375 L 27.613281 4.09375 L 27.613281 25.140625 L 2.210938 25.140625 Z M 2.210938 4.09375 " clip-rule="nonzero"/></clipPath><clipPath id="9e0052013f"><path d="M 5 13 L 25 13 L 25 26.75 L 5 26.75 Z M 5 13 " clip-rule="nonzero"/></clipPath><clipPath id="9d8e39a9f5"><path d="M 2.210938 2.074219 L 28.339844 2.074219 L 28.339844 14 L 2.210938 14 Z M 2.210938 2.074219 " clip-rule="nonzero"/></clipPath></defs><g clip-path="url(#180b6c6f86)"><path fill="#ffffff" d="M 22.019531 8.9375 C 21.804688 8.9375 21.585938 9.019531 21.421875 9.1875 C 21.09375 9.523438 21.09375 10.066406 21.421875 10.402344 L 24.726562 13.761719 L 8.195312 13.816406 C 7.730469 13.816406 7.355469 14.203125 7.355469 14.675781 C 7.355469 15.148438 7.734375 15.53125 8.199219 15.53125 C 8.199219 15.53125 8.203125 15.53125 8.203125 15.53125 L 24.714844 15.480469 L 21.421875 18.828125 C 21.09375 19.164062 21.09375 19.707031 21.421875 20.042969 C 21.585938 20.210938 21.804688 20.296875 22.019531 20.296875 C 22.234375 20.296875 22.453125 20.210938 22.617188 20.042969 L 27.335938 15.246094 C 27.5 15.089844 27.605469 14.863281 27.605469 14.617188 C 27.605469 14.378906 27.511719 14.164062 27.359375 14.007812 L 22.617188 9.1875 C 22.453125 9.019531 22.234375 8.9375 22.019531 8.9375 Z M 17.277344 4.117188 L 3.050781 4.117188 C 2.585938 4.117188 2.207031 4.5 2.207031 4.976562 L 2.207031 24.257812 C 2.207031 24.730469 2.585938 25.117188 3.050781 25.117188 L 17.277344 25.117188 C 17.5 25.117188 17.714844 25.023438 17.875 24.863281 C 18.03125 24.703125 18.121094 24.484375 18.121094 24.257812 L 18.121094 19.4375 C 18.121094 18.960938 17.742188 18.578125 17.277344 18.578125 C 16.8125 18.578125 16.433594 18.960938 16.433594 19.4375 L 16.433594 23.398438 L 3.894531 23.398438 L 3.894531 5.832031 L 16.433594 5.832031 L 16.433594 9.796875 C 16.433594 10.269531 16.8125 10.652344 17.277344 10.652344 C 17.742188 10.652344 18.121094 10.269531 18.121094 9.796875 L 18.121094 4.972656 C 18.121094 4.746094 18.03125 4.527344 17.875 4.367188 C 17.714844 4.207031 17.5 4.117188 17.277344 4.117188 Z M 17.277344 4.117188 " fill-opacity="1" fill-rule="nonzero"/></g><g clip-path="url(#9e0052013f)"><path fill="#0a2a72" d="M 23.726562 24.964844 C 23.726562 25.292969 23.453125 25.554688 23.125 25.554688 L 18.902344 25.554688 C 18.570312 25.554688 18.300781 25.289062 18.300781 24.964844 L 18.300781 18.816406 C 18.300781 17.835938 17.492188 17.042969 16.492188 17.042969 L 14.078125 17.042969 C 13.082031 17.042969 12.269531 17.835938 12.269531 18.816406 L 12.269531 24.964844 C 12.269531 25.292969 12 25.554688 11.671875 25.554688 L 7.433594 25.554688 C 7.097656 25.554688 6.832031 25.289062 6.832031 24.964844 L 6.832031 13.117188 L 5.625 13.117188 L 5.625 24.964844 C 5.625 25.945312 6.433594 26.742188 7.433594 26.742188 L 11.65625 26.742188 C 12.652344 26.742188 13.460938 25.945312 13.460938 24.964844 L 13.460938 18.816406 C 13.460938 18.488281 13.734375 18.226562 14.0625 18.226562 L 16.476562 18.226562 C 16.8125 18.226562 17.078125 18.496094 17.078125 18.816406 L 17.078125 24.964844 C 17.078125 25.945312 17.890625 26.742188 18.886719 26.742188 L 23.109375 26.742188 C 24.109375 26.742188 24.917969 25.945312 24.917969 24.964844 L 24.917969 13.117188 L 23.710938 13.117188 Z M 23.726562 24.964844 " fill-opacity="1" fill-rule="nonzero"/></g><g clip-path="url(#9d8e39a9f5)"><path fill="#0a2a72" d="M 16.453125 2.660156 C 15.765625 2.085938 14.78125 2.085938 14.09375 2.660156 L 2.210938 12.664062 L 2.996094 13.5625 L 14.882812 3.558594 C 15.113281 3.367188 15.445312 3.367188 15.667969 3.558594 L 27.558594 13.5625 L 28.339844 12.664062 Z M 16.453125 2.660156 " fill-opacity="1" fill-rule="nonzero"/></g></svg>