<svg xmlns="http://www.w3.org/2000/svg" xmlns:xlink="http://www.w3.org/1999/xlink" width="40" zoomAndPan="magnify" viewBox="0 0 30 30.000001" height="40" preserveAspectRatio="xMidYMid meet" version="1.0"><defs><clipPath id="49c4f2fe8e"><path d="M 2.210938 4.09375 L 27.613281 4.09375 L 27.613281 25.140625 L 2.210938 25.140625 Z M 2.210938 4.09375 " clip-rule="nonzero"/></clipPath></defs><g clip-path="url(#49c4f2fe8e)"><path fill="#ffffff" d="M 22.019531 8.9375 C 21.804688 8.9375 21.585938 9.019531 21.421875 9.1875 C 21.09375 9.523438 21.09375 10.066406 21.421875 10.402344 L 24.726562 13.761719 L 8.195312 13.816406 C 7.730469 13.816406 7.355469 14.203125 7.355469 14.675781 C 7.355469 15.148438 7.734375 15.53125 8.199219 15.53125 C 8.199219 15.53125 8.203125 15.53125 8.203125 15.53125 L 24.714844 15.480469 L 21.421875 18.828125 C 21.09375 19.164062 21.09375 19.707031 21.421875 20.042969 C 21.585938 20.210938 21.804688 20.296875 22.019531 20.296875 C 22.234375 20.296875 22.453125 20.210938 22.617188 20.042969 L 27.335938 15.246094 C 27.5 15.089844 27.605469 14.863281 27.605469 14.617188 C 27.605469 14.378906 27.511719 14.164062 27.359375 14.007812 L 22.617188 9.1875 C 22.453125 9.019531 22.234375 8.9375 22.019531 8.9375 Z M 17.277344 4.117188 L 3.050781 4.117188 C 2.585938 4.117188 2.207031 4.5 2.207031 4.976562 L 2.207031 24.257812 C 2.207031 24.730469 2.585938 25.117188 3.050781 25.117188 L 17.277344 25.117188 C 17.5 25.117188 17.714844 25.023438 17.875 24.863281 C 18.03125 24.703125 18.121094 24.484375 18.121094 24.257812 L 18.121094 19.4375 C 18.121094 18.960938 17.742188 18.578125 17.277344 18.578125 C 16.8125 18.578125 16.433594 18.960938 16.433594 19.4375 L 16.433594 23.398438 L 3.894531 23.398438 L 3.894531 5.832031 L 16.433594 5.832031 L 16.433594 9.796875 C 16.433594 10.269531 16.8125 10.652344 17.277344 10.652344 C 17.742188 10.652344 18.121094 10.269531 18.121094 9.796875 L 18.121094 4.972656 C 18.121094 4.746094 18.03125 4.527344 17.875 4.367188 C 17.714844 4.207031 17.5 4.117188 17.277344 4.117188 Z M 17.277344 4.117188 " fill-opacity="1" fill-rule="nonzero"/></g></svg>