<svg xmlns="http://www.w3.org/2000/svg" xmlns:xlink="http://www.w3.org/1999/xlink" width="40" zoomAndPan="magnify" viewBox="0 0 30 30.000001" height="40" preserveAspectRatio="xMidYMid meet" version="1.0"><defs><clipPath id="22ab8dfd6f"><path d="M 2 5.371094 L 28.066406 5.371094 L 28.066406 23.515625 L 2 23.515625 Z M 2 5.371094 " clip-rule="nonzero"/></clipPath></defs><g clip-path="url(#22ab8dfd6f)"><path fill="#828080" d="M 3.367188 5.410156 C 3.191406 5.410156 3.023438 5.441406 2.863281 5.503906 C 2.699219 5.570312 2.558594 5.660156 2.433594 5.78125 C 2.308594 5.902344 2.214844 6.042969 2.148438 6.203125 C 2.082031 6.363281 2.046875 6.527344 2.046875 6.703125 C 2.046875 6.875 2.082031 7.039062 2.148438 7.199219 C 2.214844 7.359375 2.308594 7.5 2.433594 7.621094 C 2.558594 7.742188 2.699219 7.835938 2.863281 7.898438 C 3.023438 7.964844 3.191406 7.996094 3.367188 7.992188 L 26.765625 7.992188 C 26.9375 7.996094 27.105469 7.964844 27.269531 7.898438 C 27.429688 7.835938 27.570312 7.742188 27.695312 7.621094 C 27.820312 7.5 27.914062 7.359375 27.980469 7.199219 C 28.050781 7.039062 28.082031 6.875 28.082031 6.703125 C 28.082031 6.527344 28.050781 6.363281 27.980469 6.203125 C 27.914062 6.042969 27.820312 5.902344 27.695312 5.78125 C 27.570312 5.660156 27.429688 5.570312 27.269531 5.503906 C 27.105469 5.441406 26.9375 5.410156 26.765625 5.410156 Z M 3.367188 13.152344 C 3.191406 13.152344 3.023438 13.183594 2.863281 13.246094 C 2.699219 13.3125 2.558594 13.402344 2.433594 13.523438 C 2.308594 13.644531 2.214844 13.785156 2.148438 13.945312 C 2.082031 14.105469 2.046875 14.269531 2.046875 14.445312 C 2.046875 14.617188 2.082031 14.78125 2.148438 14.941406 C 2.214844 15.101562 2.308594 15.242188 2.433594 15.363281 C 2.558594 15.484375 2.699219 15.578125 2.863281 15.640625 C 3.023438 15.707031 3.191406 15.734375 3.367188 15.734375 L 26.765625 15.734375 C 26.9375 15.734375 27.105469 15.707031 27.269531 15.640625 C 27.429688 15.578125 27.570312 15.484375 27.695312 15.363281 C 27.820312 15.242188 27.914062 15.101562 27.980469 14.941406 C 28.050781 14.78125 28.082031 14.617188 28.082031 14.445312 C 28.082031 14.269531 28.050781 14.105469 27.980469 13.945312 C 27.914062 13.785156 27.820312 13.644531 27.695312 13.523438 C 27.570312 13.402344 27.429688 13.3125 27.269531 13.246094 C 27.105469 13.183594 26.9375 13.152344 26.765625 13.152344 Z M 3.367188 20.894531 C 3.191406 20.890625 3.023438 20.921875 2.863281 20.988281 C 2.699219 21.050781 2.558594 21.144531 2.433594 21.265625 C 2.308594 21.386719 2.214844 21.527344 2.148438 21.6875 C 2.082031 21.847656 2.046875 22.011719 2.046875 22.183594 C 2.046875 22.359375 2.082031 22.523438 2.148438 22.683594 C 2.214844 22.84375 2.308594 22.984375 2.433594 23.105469 C 2.558594 23.226562 2.699219 23.316406 2.863281 23.382812 C 3.023438 23.445312 3.191406 23.476562 3.367188 23.476562 L 26.765625 23.476562 C 26.9375 23.476562 27.105469 23.445312 27.269531 23.382812 C 27.429688 23.316406 27.570312 23.226562 27.695312 23.105469 C 27.820312 22.984375 27.914062 22.84375 27.980469 22.683594 C 28.050781 22.523438 28.082031 22.359375 28.082031 22.183594 C 28.082031 22.011719 28.050781 21.847656 27.980469 21.6875 C 27.914062 21.527344 27.820312 21.386719 27.695312 21.265625 C 27.570312 21.144531 27.429688 21.050781 27.269531 20.988281 C 27.105469 20.921875 26.9375 20.890625 26.765625 20.894531 Z M 3.367188 20.894531 " fill-opacity="1" fill-rule="nonzero"/></g></svg>