<svg width="95" height="88" viewBox="0 0 95 88" fill="none" xmlns="http://www.w3.org/2000/svg">
<path d="M45.1374 43.8854H49.8626C51.9284 43.8854 53.7715 45.0656 53.7715 46.475H57.6927C57.6927 43.0145 54.2292 40.1958 49.8626 40.1958V37.2739H45.9414V40.1958H45.1374C40.8822 40.1958 37.3073 43.0145 37.3073 46.475V46.6927C37.3073 48.6406 38.804 50.3708 41.6862 51.7802L41.9212 51.8948L42.4902 51.9979L51.582 53.7281C53.0788 54.4843 53.6602 55.2521 53.6602 55.5729V55.7906C53.6602 57.2 51.8171 58.3916 49.7389 58.3916H45.026C42.9479 58.3916 41.1048 57.2 41.1048 55.7906V54.3812H37.196V55.7906C37.196 59.251 40.6471 62.0698 45.026 62.0698H45.8301V65.2093H49.7389V62.0698C54.0065 62.0698 57.569 59.251 57.569 55.7906V55.5729C57.569 54.1635 56.765 52.2156 53.0788 50.3708L52.8561 50.2677L52.5098 50.1531L43.2943 48.4229C41.6862 47.6666 41.2285 46.9104 41.2285 46.6927V46.475C41.2285 45.0656 43.0716 43.8854 45.1374 43.8854Z" fill="#1BA8E3"/>
<mask id="mask0_7_156" style="mask-type:luminance" maskUnits="userSpaceOnUse" x="10" y="4" width="75" height="77">
<path d="M10.7246 4.26251H84.2754V80.9073H10.7246V4.26251Z" fill="white"/>
</mask>
<g mask="url(#mask0_7_156)">
<path d="M58.2617 24.074L66.0918 17.1417L66.2031 16.8208C66.6732 15.6292 66.6732 14.3229 66.2031 13.2458C65.6341 12.0542 64.7064 11.1833 63.4447 10.7479L59.6471 9.35001C59.6471 6.53126 57.1113 4.26251 54.1178 4.26251H40.7708C37.7773 4.26251 35.3529 6.53126 35.2415 9.35001L31.444 10.7479C28.9082 11.7333 27.6465 14.4375 28.6732 16.924L28.7969 17.2448L36.7383 24.1771C30.1699 28.7261 13.9408 43.2323 11.64 60.7635C10.8359 66.5042 12.0977 71.2708 15.4375 74.7313C21.1894 80.7927 30.8626 80.9073 31.444 80.9073H63.556C64.026 80.9073 73.8105 80.7927 79.5625 74.7313C82.9023 71.2708 84.1641 66.5042 83.36 60.7635C81.0592 43.1177 64.8301 28.6115 58.2617 24.074ZM32.9408 14.0021L36.8496 12.4896L39.8431 17.5771C40.1894 18.2188 40.8822 18.5511 41.5749 18.5511C41.9212 18.5511 42.1439 18.4365 42.4902 18.3333C43.418 17.8979 43.7643 16.7063 43.2943 15.8469L39.6081 9.35001C39.4967 9.23543 39.4967 9.1323 39.3854 9.1323L39.2741 8.91459C39.3854 8.26147 40.0781 7.72293 40.8822 7.72293H54.3529C55.1569 7.72293 55.8496 8.26147 55.9609 9.01772L55.7259 9.56772L52.0521 15.95C51.582 16.8208 51.9284 17.8979 52.8561 18.4365C53.2025 18.5511 53.4251 18.6542 53.7715 18.6542C54.4642 18.6542 55.1569 18.3333 55.5033 17.6802L58.3854 12.5927L62.1829 14.0021C62.4056 14.1052 62.6406 14.3229 62.7519 14.5406C62.8633 14.7583 62.8633 14.8615 62.8633 15.0792L54.5755 22.3323C51.1243 21.7938 43.8756 21.7938 40.5358 22.3323L32.248 15.0792C32.1367 14.6552 32.3594 14.2198 32.9408 14.0021ZM76.6803 72.2448C72.0788 77.1146 63.6797 77.2177 63.556 77.2177H53.5488C57 76.2438 60.2161 75.1667 62.987 73.7573C63.9023 73.3219 64.2487 72.1302 63.791 71.2708C63.3333 70.4 62.0592 70.0792 61.1439 70.5146C51.582 75.3844 34.7839 77.2177 29.9473 77.1146C29.8236 77.1146 29.8236 77.1146 29.7122 77.1146C27.0651 76.7938 21.6595 75.8198 18.3197 72.2448C15.7838 69.5406 14.8561 65.7479 15.4375 61.0958C17.9733 41.926 38.804 26.7781 40.5358 26.0219C41.3398 25.6896 44.4447 25.5865 47.5618 25.5865C50.5553 25.5865 53.6601 25.6896 54.4642 26.0219C56.196 26.7781 77.0267 41.8229 79.5625 61.0958C80.1439 65.851 79.2161 69.5406 76.6803 72.2448Z" fill="#1BA8E3"/>
</g>
</svg>
