<svg xmlns="http://www.w3.org/2000/svg" xmlns:xlink="http://www.w3.org/1999/xlink" width="40" zoomAndPan="magnify" viewBox="0 0 30 30.000001" height="40" preserveAspectRatio="xMidYMid meet" version="1.0"><defs><clipPath id="6990428ba7"><path d="M 3.386719 1.941406 L 26.613281 1.941406 L 26.613281 27.347656 L 3.386719 27.347656 Z M 3.386719 1.941406 " clip-rule="nonzero"/></clipPath></defs><g clip-path="url(#6990428ba7)"><path fill="#1ba8e3" d="M 6.078125 7.238281 L 16.277344 7.238281 C 16.429688 7.238281 16.550781 7.171875 16.636719 7.039062 C 16.679688 6.96875 16.703125 6.890625 16.703125 6.804688 L 16.703125 4.542969 C 16.703125 4.425781 16.664062 4.320312 16.578125 4.238281 C 16.496094 4.152344 16.394531 4.109375 16.277344 4.109375 L 6.078125 4.109375 C 5.960938 4.109375 5.859375 4.152344 5.777344 4.238281 C 5.691406 4.320312 5.652344 4.425781 5.652344 4.542969 L 5.652344 6.804688 C 5.652344 6.921875 5.691406 7.023438 5.777344 7.109375 C 5.859375 7.195312 5.960938 7.238281 6.078125 7.238281 Z M 6.511719 4.976562 L 15.84375 4.976562 L 15.84375 6.371094 L 6.511719 6.371094 Z M 7.539062 16.832031 L 6.078125 16.832031 C 5.960938 16.832031 5.859375 16.875 5.777344 16.960938 C 5.691406 17.046875 5.652344 17.148438 5.652344 17.269531 L 5.652344 18.703125 C 5.652344 18.824219 5.691406 18.925781 5.777344 19.011719 C 5.859375 19.09375 5.960938 19.136719 6.078125 19.140625 L 7.539062 19.140625 C 7.65625 19.136719 7.757812 19.097656 7.84375 19.011719 C 7.925781 18.925781 7.96875 18.824219 7.96875 18.703125 L 7.96875 17.269531 C 7.96875 17.148438 7.925781 17.046875 7.84375 16.960938 C 7.757812 16.875 7.65625 16.832031 7.539062 16.832031 Z M 7.105469 18.269531 L 6.511719 18.269531 L 6.511719 17.699219 L 7.105469 17.699219 Z M 17.796875 15.269531 C 17.980469 15.082031 18.203125 14.964844 18.464844 14.921875 L 18.464844 14.667969 C 18.460938 14.546875 18.5 14.441406 18.585938 14.355469 C 18.667969 14.265625 18.773438 14.222656 18.890625 14.222656 C 19.011719 14.222656 19.113281 14.265625 19.199219 14.355469 C 19.28125 14.441406 19.324219 14.546875 19.320312 14.667969 L 19.320312 14.921875 C 19.5625 14.964844 19.769531 15.066406 19.949219 15.238281 C 19.960938 15.246094 19.972656 15.257812 19.984375 15.269531 C 20.171875 15.460938 20.289062 15.6875 20.332031 15.957031 C 20.339844 16.019531 20.34375 16.078125 20.34375 16.140625 C 20.34375 16.261719 20.300781 16.363281 20.21875 16.449219 C 20.132812 16.53125 20.03125 16.574219 19.914062 16.574219 C 19.792969 16.574219 19.691406 16.53125 19.609375 16.449219 C 19.523438 16.363281 19.480469 16.261719 19.480469 16.140625 C 19.484375 16.097656 19.476562 16.058594 19.460938 16.019531 C 19.441406 15.964844 19.414062 15.917969 19.375 15.878906 C 19.304688 15.808594 19.21875 15.773438 19.121094 15.773438 L 18.660156 15.773438 C 18.5625 15.773438 18.476562 15.808594 18.40625 15.878906 C 18.386719 15.898438 18.367188 15.921875 18.351562 15.945312 C 18.253906 16.105469 18.269531 16.253906 18.394531 16.390625 C 18.46875 16.46875 18.554688 16.507812 18.660156 16.507812 L 19.121094 16.507812 C 19.382812 16.507812 19.621094 16.585938 19.832031 16.742188 C 19.886719 16.777344 19.9375 16.824219 19.984375 16.871094 L 20.011719 16.898438 C 20.164062 17.058594 20.261719 17.25 20.3125 17.464844 C 20.332031 17.554688 20.34375 17.648438 20.34375 17.742188 C 20.34375 17.988281 20.277344 18.210938 20.144531 18.414062 C 20.097656 18.488281 20.042969 18.554688 19.984375 18.617188 C 19.796875 18.804688 19.574219 18.921875 19.316406 18.964844 L 19.316406 19.21875 C 19.320312 19.339844 19.277344 19.445312 19.195312 19.53125 C 19.109375 19.621094 19.007812 19.664062 18.886719 19.664062 C 18.769531 19.664062 18.664062 19.621094 18.582031 19.53125 C 18.496094 19.445312 18.457031 19.339844 18.460938 19.21875 L 18.460938 18.964844 C 18.328125 18.941406 18.203125 18.898438 18.082031 18.832031 C 17.976562 18.777344 17.878906 18.707031 17.796875 18.617188 C 17.554688 18.378906 17.433594 18.085938 17.433594 17.742188 C 17.433594 17.625 17.476562 17.519531 17.5625 17.4375 C 17.644531 17.351562 17.746094 17.308594 17.867188 17.308594 C 17.984375 17.308594 18.085938 17.351562 18.171875 17.4375 C 18.253906 17.519531 18.296875 17.625 18.296875 17.742188 C 18.296875 17.84375 18.332031 17.933594 18.402344 18.003906 C 18.472656 18.078125 18.558594 18.113281 18.660156 18.113281 L 19.117188 18.113281 C 19.21875 18.113281 19.304688 18.078125 19.375 18.003906 C 19.445312 17.933594 19.484375 17.847656 19.484375 17.746094 C 19.484375 17.675781 19.464844 17.613281 19.429688 17.550781 C 19.417969 17.535156 19.402344 17.515625 19.386719 17.5 C 19.316406 17.417969 19.226562 17.378906 19.117188 17.378906 L 18.664062 17.378906 C 18.457031 17.378906 18.265625 17.328125 18.085938 17.230469 C 17.976562 17.171875 17.882812 17.101562 17.796875 17.015625 L 17.777344 16.992188 C 17.667969 16.875 17.582031 16.742188 17.523438 16.59375 C 17.464844 16.445312 17.4375 16.289062 17.4375 16.128906 C 17.441406 15.964844 17.472656 15.8125 17.535156 15.664062 C 17.597656 15.515625 17.683594 15.382812 17.796875 15.269531 Z M 16.277344 8.210938 L 14.816406 8.210938 C 14.699219 8.210938 14.597656 8.253906 14.515625 8.335938 C 14.429688 8.421875 14.390625 8.523438 14.390625 8.644531 L 14.390625 10.082031 C 14.390625 10.199219 14.429688 10.300781 14.515625 10.386719 C 14.597656 10.472656 14.699219 10.515625 14.816406 10.515625 L 16.277344 10.515625 C 16.394531 10.515625 16.496094 10.472656 16.578125 10.386719 C 16.664062 10.300781 16.703125 10.199219 16.703125 10.082031 L 16.703125 8.644531 C 16.703125 8.523438 16.664062 8.421875 16.578125 8.335938 C 16.496094 8.253906 16.394531 8.210938 16.277344 8.210938 Z M 15.84375 9.648438 L 15.25 9.648438 L 15.25 9.078125 L 15.84375 9.078125 Z M 16.277344 11.082031 L 14.816406 11.082031 C 14.699219 11.082031 14.597656 11.125 14.515625 11.210938 C 14.429688 11.296875 14.390625 11.398438 14.390625 11.519531 L 14.390625 12.953125 C 14.390625 13.074219 14.429688 13.175781 14.515625 13.261719 C 14.597656 13.347656 14.699219 13.390625 14.816406 13.390625 L 16.277344 13.390625 C 16.382812 13.390625 16.472656 13.355469 16.554688 13.285156 C 16.632812 13.214844 16.679688 13.128906 16.695312 13.023438 C 16.703125 13 16.703125 12.976562 16.703125 12.953125 L 16.703125 11.519531 C 16.703125 11.398438 16.660156 11.296875 16.578125 11.210938 C 16.496094 11.128906 16.394531 11.085938 16.277344 11.082031 Z M 15.84375 12.519531 L 15.25 12.519531 L 15.25 11.953125 L 15.84375 11.953125 Z M 26.5625 24.546875 C 26.566406 24.53125 26.566406 24.515625 26.566406 24.496094 L 26.566406 24.140625 L 26.578125 24.140625 L 26.578125 6.648438 C 26.574219 6.527344 26.535156 6.425781 26.449219 6.339844 C 26.363281 6.253906 26.257812 6.207031 26.140625 6.207031 L 18.972656 6.207031 L 18.972656 3.625 C 18.96875 3.410156 18.929688 3.199219 18.84375 2.996094 C 18.761719 2.796875 18.644531 2.617188 18.492188 2.464844 C 18.339844 2.308594 18.164062 2.191406 17.964844 2.105469 C 17.765625 2.023438 17.558594 1.980469 17.339844 1.980469 L 5.011719 1.980469 C 4.796875 1.980469 4.589844 2.023438 4.390625 2.105469 C 4.191406 2.191406 4.015625 2.308594 3.863281 2.464844 C 3.710938 2.617188 3.59375 2.796875 3.511719 2.996094 C 3.429688 3.199219 3.386719 3.40625 3.386719 3.625 L 3.386719 19.621094 C 3.386719 19.839844 3.429688 20.050781 3.511719 20.25 C 3.59375 20.453125 3.710938 20.628906 3.863281 20.785156 C 4.015625 20.9375 4.191406 21.058594 4.390625 21.140625 C 4.589844 21.226562 4.796875 21.265625 5.011719 21.269531 L 6.597656 21.269531 L 6.597656 26.855469 C 6.597656 26.929688 6.617188 26.996094 6.652344 27.0625 C 6.6875 27.125 6.734375 27.175781 6.792969 27.214844 C 6.855469 27.253906 6.921875 27.277344 6.992188 27.285156 C 7.0625 27.289062 7.132812 27.277344 7.199219 27.25 L 18.242188 27.25 C 18.34375 27.253906 18.433594 27.222656 18.511719 27.152344 C 18.59375 27.085938 18.636719 27.003906 18.652344 26.898438 C 18.664062 26.855469 18.671875 26.8125 18.675781 26.769531 L 18.675781 25.140625 L 26.167969 25.140625 C 26.238281 25.140625 26.304688 25.125 26.367188 25.089844 C 26.429688 25.054688 26.480469 25.011719 26.519531 24.949219 C 26.558594 24.890625 26.582031 24.828125 26.589844 24.757812 C 26.597656 24.6875 26.589844 24.617188 26.5625 24.550781 Z M 20.0625 13.703125 C 20.308594 13.796875 20.546875 13.921875 20.769531 14.066406 C 20.886719 14.148438 21.003906 14.238281 21.109375 14.332031 C 21.171875 14.386719 21.230469 14.441406 21.289062 14.5 C 21.539062 14.757812 21.746094 15.050781 21.910156 15.375 C 22.011719 15.578125 22.09375 15.785156 22.152344 16.003906 C 22.230469 16.28125 22.273438 16.5625 22.277344 16.847656 C 22.28125 16.878906 22.28125 16.914062 22.28125 16.945312 C 22.28125 17.417969 22.191406 17.871094 22.007812 18.308594 C 21.917969 18.53125 21.800781 18.742188 21.664062 18.9375 C 21.550781 19.097656 21.429688 19.246094 21.292969 19.386719 C 21.046875 19.632812 20.773438 19.839844 20.46875 20 C 20.164062 20.164062 19.839844 20.277344 19.5 20.339844 C 19.160156 20.402344 18.816406 20.414062 18.472656 20.371094 C 18.132812 20.328125 17.800781 20.234375 17.488281 20.089844 L 17.488281 20.042969 L 17.398438 20.042969 L 17.269531 19.976562 C 17.078125 19.871094 16.898438 19.75 16.730469 19.605469 L 16.707031 19.585938 C 16.6875 19.566406 16.664062 19.550781 16.640625 19.535156 C 16.628906 19.515625 16.613281 19.5 16.597656 19.488281 C 16.566406 19.460938 16.539062 19.433594 16.511719 19.402344 L 16.488281 19.382812 C 16.382812 19.277344 16.285156 19.164062 16.195312 19.042969 L 16.171875 19.003906 C 16.140625 18.964844 16.109375 18.925781 16.085938 18.882812 L 16.042969 18.816406 C 16.03125 18.800781 16.019531 18.78125 16.007812 18.765625 L 15.992188 18.730469 C 15.9375 18.644531 15.890625 18.554688 15.84375 18.460938 L 15.816406 18.398438 C 15.800781 18.371094 15.789062 18.339844 15.777344 18.3125 L 15.734375 18.210938 C 15.726562 18.195312 15.722656 18.175781 15.710938 18.148438 L 15.660156 17.992188 C 15.644531 17.9375 15.628906 17.886719 15.613281 17.835938 C 15.609375 17.820312 15.605469 17.800781 15.601562 17.785156 L 15.574219 17.667969 C 15.570312 17.609375 15.558594 17.546875 15.542969 17.492188 L 15.539062 17.476562 L 15.523438 17.332031 C 15.519531 17.3125 15.515625 17.289062 15.515625 17.269531 C 15.511719 17.246094 15.511719 17.222656 15.511719 17.203125 L 15.507812 17.152344 C 15.503906 17.136719 15.503906 17.125 15.503906 17.109375 C 15.5 17.058594 15.5 17.003906 15.5 16.949219 C 15.5 16.890625 15.503906 16.832031 15.503906 16.777344 L 15.515625 16.589844 C 15.519531 16.574219 15.519531 16.558594 15.523438 16.546875 L 15.617188 16.042969 C 15.625 16.011719 15.632812 15.980469 15.644531 15.941406 L 15.695312 15.78125 C 15.703125 15.761719 15.710938 15.746094 15.71875 15.726562 C 15.730469 15.695312 15.738281 15.664062 15.757812 15.621094 C 15.765625 15.605469 15.769531 15.585938 15.777344 15.570312 C 15.789062 15.539062 15.804688 15.511719 15.820312 15.480469 L 15.84375 15.425781 C 15.859375 15.394531 15.875 15.363281 15.890625 15.332031 L 15.90625 15.277344 L 15.917969 15.28125 C 15.929688 15.257812 15.941406 15.234375 15.96875 15.1875 C 15.980469 15.171875 15.992188 15.152344 16.003906 15.136719 C 16.015625 15.117188 16.027344 15.09375 16.039062 15.074219 C 16.050781 15.058594 16.058594 15.042969 16.070312 15.027344 L 16.144531 14.925781 C 16.160156 14.902344 16.179688 14.875 16.203125 14.839844 C 16.214844 14.824219 16.226562 14.808594 16.253906 14.777344 C 16.273438 14.753906 16.289062 14.730469 16.3125 14.703125 C 16.382812 14.625 16.484375 14.515625 16.5 14.5 C 16.902344 14.109375 17.363281 13.828125 17.890625 13.644531 C 18.621094 13.445312 19.34375 13.464844 20.058594 13.703125 Z M 5.128906 20.398438 L 5.011719 20.398438 C 4.800781 20.394531 4.621094 20.320312 4.472656 20.167969 C 4.320312 20.019531 4.246094 19.835938 4.246094 19.621094 L 4.246094 3.625 C 4.246094 3.410156 4.320312 3.230469 4.472656 3.078125 C 4.621094 2.925781 4.800781 2.851562 5.015625 2.847656 L 17.339844 2.847656 C 17.554688 2.851562 17.734375 2.925781 17.882812 3.078125 C 18.035156 3.230469 18.109375 3.410156 18.109375 3.625 L 18.109375 12.699219 L 18.105469 12.699219 C 17.84375 12.75 17.589844 12.824219 17.34375 12.921875 L 17.316406 12.929688 C 17.269531 12.949219 17.21875 12.972656 17.171875 12.996094 C 16.914062 13.113281 16.671875 13.253906 16.445312 13.417969 C 16.425781 13.425781 16.414062 13.4375 16.398438 13.449219 C 16.371094 13.46875 16.34375 13.488281 16.316406 13.507812 L 16.21875 13.589844 C 16.199219 13.605469 16.179688 13.621094 16.160156 13.640625 C 16.140625 13.65625 16.121094 13.667969 16.105469 13.6875 C 16.074219 13.710938 16.042969 13.742188 16.015625 13.769531 C 16 13.78125 15.984375 13.796875 15.972656 13.808594 C 15.945312 13.835938 15.917969 13.863281 15.886719 13.894531 C 15.863281 13.914062 15.839844 13.9375 15.820312 13.960938 L 14.816406 13.960938 C 14.699219 13.960938 14.597656 14.003906 14.515625 14.089844 C 14.433594 14.171875 14.390625 14.273438 14.390625 14.394531 L 14.390625 15.832031 C 14.390625 16.050781 14.492188 16.1875 14.699219 16.246094 C 14.695312 16.265625 14.691406 16.289062 14.6875 16.316406 L 14.683594 16.363281 C 14.679688 16.386719 14.675781 16.410156 14.675781 16.429688 L 14.652344 16.660156 C 14.652344 16.679688 14.648438 16.699219 14.644531 16.734375 C 14.644531 16.777344 14.644531 16.820312 14.644531 16.875 C 14.476562 16.949219 14.390625 17.082031 14.390625 17.269531 L 14.390625 18.707031 C 14.390625 18.828125 14.433594 18.929688 14.515625 19.011719 C 14.597656 19.097656 14.699219 19.136719 14.816406 19.140625 L 15.230469 19.140625 L 15.398438 19.402344 C 15.40625 19.414062 15.414062 19.425781 15.433594 19.457031 L 15.503906 19.550781 L 15.527344 19.578125 C 15.636719 19.726562 15.757812 19.867188 15.886719 20 C 16.027344 20.144531 16.179688 20.277344 16.339844 20.398438 Z M 17.808594 26.375 L 7.464844 26.375 L 7.464844 21.269531 L 11.96875 21.269531 L 11.96875 21.773438 L 9.085938 21.773438 C 8.96875 21.773438 8.863281 21.816406 8.78125 21.902344 C 8.695312 21.984375 8.652344 22.089844 8.652344 22.210938 C 8.652344 22.332031 8.695312 22.433594 8.78125 22.519531 C 8.863281 22.605469 8.96875 22.648438 9.085938 22.648438 L 11.96875 22.648438 L 11.96875 23.804688 L 9.042969 23.804688 C 8.921875 23.804688 8.820312 23.847656 8.734375 23.929688 C 8.652344 24.015625 8.609375 24.121094 8.609375 24.242188 C 8.609375 24.359375 8.652344 24.464844 8.734375 24.550781 C 8.820312 24.636719 8.921875 24.675781 9.042969 24.675781 L 11.96875 24.675781 L 11.96875 24.703125 C 11.964844 24.820312 12.003906 24.917969 12.085938 25 C 12.089844 25.003906 12.09375 25.007812 12.097656 25.011719 C 12.101562 25.019531 12.105469 25.019531 12.109375 25.023438 C 12.1875 25.105469 12.289062 25.144531 12.402344 25.140625 L 17.808594 25.140625 Z M 25.703125 24.265625 L 12.835938 24.265625 L 12.835938 21.269531 L 17.339844 21.269531 C 17.472656 21.269531 17.597656 21.25 17.722656 21.21875 C 17.792969 21.199219 17.863281 21.179688 17.929688 21.152344 C 18.644531 21.320312 19.355469 21.304688 20.0625 21.097656 C 20.769531 20.894531 21.378906 20.527344 21.894531 20 C 22.15625 19.738281 22.375 19.445312 22.558594 19.125 L 24.132812 19.125 C 24.257812 19.128906 24.363281 19.085938 24.453125 19 C 24.539062 18.910156 24.585938 18.804688 24.585938 18.679688 C 24.585938 18.554688 24.539062 18.449219 24.453125 18.363281 C 24.363281 18.277344 24.257812 18.234375 24.132812 18.238281 L 22.949219 18.238281 C 23.078125 17.816406 23.140625 17.386719 23.140625 16.945312 C 23.144531 16.523438 23.085938 16.113281 22.964844 15.710938 C 22.929688 15.585938 22.886719 15.460938 22.839844 15.339844 C 22.699219 14.992188 22.519531 14.667969 22.300781 14.363281 L 24.136719 14.363281 C 24.257812 14.363281 24.359375 14.320312 24.445312 14.234375 C 24.53125 14.148438 24.574219 14.042969 24.574219 13.921875 C 24.574219 13.800781 24.53125 13.695312 24.445312 13.609375 C 24.359375 13.523438 24.257812 13.476562 24.136719 13.476562 L 21.429688 13.476562 C 21.070312 13.203125 20.675781 12.996094 20.25 12.847656 L 22.542969 12.847656 C 22.664062 12.847656 22.769531 12.804688 22.851562 12.71875 C 22.9375 12.632812 22.980469 12.527344 22.980469 12.40625 C 22.980469 12.28125 22.9375 12.179688 22.851562 12.089844 C 22.769531 12.003906 22.664062 11.960938 22.542969 11.960938 L 18.972656 11.960938 L 18.972656 11.332031 L 22.542969 11.332031 C 22.664062 11.332031 22.769531 11.285156 22.851562 11.199219 C 22.9375 11.113281 22.980469 11.007812 22.980469 10.886719 C 22.980469 10.765625 22.9375 10.660156 22.851562 10.574219 C 22.769531 10.488281 22.664062 10.445312 22.542969 10.445312 L 18.972656 10.445312 L 18.972656 7.09375 L 25.699219 7.09375 L 25.699219 23.957031 L 25.703125 23.957031 Z M 7.539062 8.210938 L 6.078125 8.210938 C 5.960938 8.210938 5.859375 8.253906 5.777344 8.335938 C 5.691406 8.421875 5.652344 8.523438 5.652344 8.644531 L 5.652344 10.082031 C 5.652344 10.199219 5.691406 10.300781 5.777344 10.386719 C 5.859375 10.472656 5.960938 10.515625 6.078125 10.515625 L 7.539062 10.515625 C 7.65625 10.515625 7.757812 10.472656 7.84375 10.386719 C 7.925781 10.304688 7.96875 10.199219 7.96875 10.082031 L 7.96875 8.644531 C 7.96875 8.523438 7.925781 8.421875 7.84375 8.335938 C 7.757812 8.253906 7.65625 8.210938 7.539062 8.210938 Z M 7.105469 9.648438 L 6.511719 9.648438 L 6.511719 9.078125 L 7.105469 9.078125 Z M 13.363281 13.957031 L 11.90625 13.957031 C 11.785156 13.957031 11.683594 14 11.601562 14.085938 C 11.519531 14.171875 11.476562 14.273438 11.476562 14.394531 L 11.476562 15.828125 C 11.476562 15.949219 11.519531 16.050781 11.601562 16.136719 C 11.683594 16.222656 11.785156 16.265625 11.90625 16.265625 L 13.363281 16.265625 C 13.480469 16.261719 13.582031 16.222656 13.664062 16.136719 C 13.75 16.050781 13.789062 15.949219 13.789062 15.828125 L 13.789062 14.394531 C 13.789062 14.273438 13.75 14.171875 13.664062 14.085938 C 13.582031 14.003906 13.480469 13.960938 13.363281 13.957031 Z M 12.933594 15.394531 L 12.335938 15.394531 L 12.335938 14.824219 L 12.933594 14.824219 Z M 10.449219 13.957031 L 8.992188 13.957031 C 8.875 13.957031 8.773438 14 8.6875 14.085938 C 8.605469 14.171875 8.5625 14.273438 8.5625 14.394531 L 8.5625 15.828125 C 8.5625 15.949219 8.605469 16.050781 8.6875 16.136719 C 8.769531 16.222656 8.871094 16.265625 8.992188 16.265625 L 10.449219 16.265625 C 10.566406 16.265625 10.667969 16.222656 10.75 16.136719 C 10.835938 16.050781 10.875 15.949219 10.875 15.828125 L 10.875 14.394531 C 10.875 14.273438 10.835938 14.171875 10.753906 14.085938 C 10.667969 14.003906 10.566406 13.960938 10.449219 13.957031 Z M 10.019531 15.394531 L 9.421875 15.394531 L 9.421875 14.824219 L 10.019531 14.824219 Z M 7.539062 13.957031 L 6.078125 13.957031 C 5.960938 13.957031 5.859375 14 5.777344 14.085938 C 5.691406 14.171875 5.652344 14.273438 5.652344 14.394531 L 5.652344 15.828125 C 5.652344 15.949219 5.691406 16.050781 5.777344 16.136719 C 5.859375 16.222656 5.960938 16.265625 6.078125 16.265625 L 7.539062 16.265625 C 7.65625 16.265625 7.757812 16.222656 7.84375 16.136719 C 7.925781 16.050781 7.96875 15.949219 7.96875 15.828125 L 7.96875 14.394531 C 7.96875 14.273438 7.925781 14.171875 7.84375 14.085938 C 7.757812 14 7.65625 13.957031 7.539062 13.957031 Z M 7.105469 15.394531 L 6.511719 15.394531 L 6.511719 14.824219 L 7.105469 14.824219 Z M 10.449219 11.082031 L 8.992188 11.082031 C 8.871094 11.082031 8.773438 11.125 8.6875 11.210938 C 8.605469 11.296875 8.5625 11.398438 8.5625 11.519531 L 8.5625 12.953125 C 8.5625 13.074219 8.605469 13.175781 8.6875 13.261719 C 8.769531 13.347656 8.871094 13.390625 8.992188 13.390625 L 10.449219 13.390625 C 10.566406 13.390625 10.667969 13.347656 10.75 13.261719 C 10.835938 13.175781 10.875 13.074219 10.875 12.953125 L 10.875 11.519531 C 10.875 11.398438 10.835938 11.296875 10.753906 11.210938 C 10.667969 11.128906 10.566406 11.085938 10.449219 11.082031 Z M 10.019531 12.519531 L 9.421875 12.519531 L 9.421875 11.953125 L 10.019531 11.953125 Z M 13.363281 16.832031 L 11.90625 16.832031 C 11.785156 16.832031 11.683594 16.875 11.601562 16.960938 C 11.519531 17.046875 11.476562 17.148438 11.476562 17.269531 L 11.476562 18.703125 C 11.476562 18.824219 11.519531 18.925781 11.601562 19.011719 C 11.683594 19.09375 11.785156 19.136719 11.90625 19.140625 L 13.363281 19.140625 C 13.480469 19.136719 13.582031 19.09375 13.664062 19.011719 C 13.75 18.925781 13.789062 18.824219 13.789062 18.703125 L 13.789062 17.269531 C 13.789062 17.148438 13.75 17.046875 13.664062 16.960938 C 13.582031 16.875 13.480469 16.832031 13.363281 16.832031 Z M 12.933594 18.269531 L 12.335938 18.269531 L 12.335938 17.699219 L 12.933594 17.699219 Z M 10.449219 16.832031 L 8.992188 16.832031 C 8.875 16.832031 8.773438 16.875 8.6875 16.960938 C 8.605469 17.046875 8.5625 17.148438 8.5625 17.269531 L 8.5625 18.703125 C 8.5625 18.824219 8.605469 18.925781 8.6875 19.011719 C 8.773438 19.097656 8.875 19.136719 8.992188 19.140625 L 10.449219 19.140625 C 10.570312 19.136719 10.667969 19.09375 10.753906 19.011719 C 10.835938 18.925781 10.878906 18.824219 10.878906 18.703125 L 10.878906 17.269531 C 10.878906 17.148438 10.835938 17.046875 10.753906 16.960938 C 10.667969 16.875 10.570312 16.832031 10.449219 16.832031 Z M 10.019531 18.269531 L 9.421875 18.269531 L 9.421875 17.699219 L 10.019531 17.699219 Z M 13.363281 11.082031 L 11.90625 11.082031 C 11.785156 11.085938 11.683594 11.128906 11.601562 11.210938 C 11.519531 11.296875 11.476562 11.398438 11.476562 11.519531 L 11.476562 12.953125 C 11.476562 13.074219 11.519531 13.175781 11.601562 13.261719 C 11.683594 13.347656 11.785156 13.390625 11.90625 13.390625 L 13.363281 13.390625 C 13.480469 13.390625 13.582031 13.347656 13.664062 13.261719 C 13.75 13.175781 13.789062 13.074219 13.789062 12.953125 L 13.789062 11.519531 C 13.792969 11.398438 13.75 11.296875 13.664062 11.210938 C 13.582031 11.128906 13.480469 11.085938 13.363281 11.082031 Z M 12.933594 12.523438 L 12.335938 12.523438 L 12.335938 11.953125 L 12.933594 11.953125 Z M 7.539062 11.082031 L 6.078125 11.082031 C 5.960938 11.085938 5.859375 11.128906 5.777344 11.210938 C 5.691406 11.296875 5.652344 11.398438 5.652344 11.519531 L 5.652344 12.953125 C 5.652344 13.074219 5.691406 13.175781 5.777344 13.261719 C 5.859375 13.347656 5.960938 13.390625 6.078125 13.390625 L 7.539062 13.390625 C 7.65625 13.390625 7.757812 13.347656 7.84375 13.261719 C 7.925781 13.175781 7.96875 13.074219 7.96875 12.953125 L 7.96875 11.519531 C 7.96875 11.398438 7.925781 11.296875 7.84375 11.210938 C 7.757812 11.125 7.65625 11.085938 7.539062 11.082031 Z M 7.105469 12.523438 L 6.511719 12.523438 L 6.511719 11.953125 L 7.105469 11.953125 Z M 13.363281 8.207031 L 11.90625 8.207031 C 11.785156 8.207031 11.683594 8.25 11.601562 8.335938 C 11.519531 8.421875 11.476562 8.523438 11.476562 8.644531 L 11.476562 10.089844 C 11.476562 10.207031 11.519531 10.308594 11.605469 10.390625 C 11.6875 10.476562 11.789062 10.515625 11.90625 10.515625 L 13.363281 10.515625 C 13.480469 10.515625 13.582031 10.472656 13.664062 10.386719 C 13.75 10.300781 13.789062 10.199219 13.789062 10.082031 L 13.789062 8.644531 C 13.792969 8.535156 13.757812 8.441406 13.683594 8.359375 C 13.601562 8.257812 13.492188 8.207031 13.363281 8.210938 Z M 12.933594 9.644531 L 12.335938 9.644531 L 12.335938 9.078125 L 12.933594 9.078125 Z M 10.449219 8.207031 L 8.992188 8.207031 C 8.871094 8.207031 8.773438 8.25 8.6875 8.335938 C 8.605469 8.421875 8.5625 8.523438 8.5625 8.644531 L 8.5625 10.082031 C 8.5625 10.199219 8.605469 10.300781 8.6875 10.386719 C 8.769531 10.472656 8.871094 10.515625 8.992188 10.515625 L 10.449219 10.515625 C 10.566406 10.515625 10.667969 10.472656 10.753906 10.390625 C 10.835938 10.304688 10.878906 10.199219 10.875 10.082031 L 10.875 8.644531 C 10.875 8.523438 10.835938 8.421875 10.753906 8.339844 C 10.667969 8.253906 10.566406 8.210938 10.449219 8.210938 Z M 10.019531 9.644531 L 9.421875 9.644531 L 9.421875 9.078125 L 10.019531 9.078125 Z M 24.328125 22.804688 L 14.511719 22.804688 C 14.394531 22.796875 14.296875 22.753906 14.21875 22.667969 C 14.136719 22.585938 14.097656 22.484375 14.097656 22.367188 C 14.097656 22.25 14.136719 22.148438 14.21875 22.0625 C 14.296875 21.976562 14.394531 21.933594 14.511719 21.929688 L 24.328125 21.929688 C 24.445312 21.929688 24.546875 21.972656 24.632812 22.058594 C 24.71875 22.144531 24.761719 22.246094 24.761719 22.367188 C 24.761719 22.488281 24.71875 22.589844 24.632812 22.675781 C 24.546875 22.761719 24.445312 22.804688 24.328125 22.804688 Z M 24.328125 22.804688 " fill-opacity="1" fill-rule="nonzero"/></g></svg>