<svg xmlns="http://www.w3.org/2000/svg" xmlns:xlink="http://www.w3.org/1999/xlink" width="40" zoomAndPan="magnify" viewBox="0 0 30 30.000001" height="40" preserveAspectRatio="xMidYMid meet" version="1.0"><defs><clipPath id="df101c733b"><path d="M 3.386719 2.902344 L 28.066406 2.902344 L 28.066406 27.582031 L 3.386719 27.582031 Z M 3.386719 2.902344 " clip-rule="nonzero"/></clipPath></defs><path fill="#1ba8e3" d="M 9.144531 20.175781 L 6.675781 20.175781 L 6.675781 14.007812 L 9.144531 14.007812 Z M 9.144531 22.644531 L 6.675781 22.644531 L 6.675781 21 L 9.144531 21 Z M 9.144531 9.074219 L 9.144531 13.183594 L 6.675781 13.183594 L 6.675781 9.074219 Z M 14.082031 11.539062 L 14.082031 13.183594 L 9.96875 13.183594 L 9.96875 11.539062 Z M 14.902344 14.007812 L 14.902344 11.539062 L 16.960938 11.539062 L 16.960938 10.71875 L 9.96875 10.71875 L 9.96875 9.074219 L 16.960938 9.074219 L 16.960938 8.25 L 6.265625 8.25 C 6.039062 8.25 5.855469 8.433594 5.855469 8.660156 L 5.855469 23.054688 C 5.855469 23.285156 6.039062 23.46875 6.265625 23.46875 L 13.257812 23.46875 L 13.257812 22.644531 L 9.96875 22.644531 L 9.96875 21 L 13.257812 21 L 13.257812 20.175781 L 9.96875 20.175781 L 9.96875 14.007812 L 14.902344 14.007812 " fill-opacity="1" fill-rule="nonzero"/><path fill="#1ba8e3" d="M 7.5 6.195312 L 6.265625 6.195312 L 6.265625 7.015625 L 7.5 7.015625 L 7.5 6.195312 " fill-opacity="1" fill-rule="nonzero"/><path fill="#1ba8e3" d="M 11.203125 6.195312 L 8.324219 6.195312 L 8.324219 7.015625 L 11.203125 7.015625 L 11.203125 6.195312 " fill-opacity="1" fill-rule="nonzero"/><path fill="#1ba8e3" d="M 6.265625 25.523438 L 7.910156 25.523438 L 7.910156 24.703125 L 6.265625 24.703125 L 6.265625 25.523438 " fill-opacity="1" fill-rule="nonzero"/><path fill="#1ba8e3" d="M 8.734375 25.523438 L 10.378906 25.523438 L 10.378906 24.703125 L 8.734375 24.703125 L 8.734375 25.523438 " fill-opacity="1" fill-rule="nonzero"/><g clip-path="url(#df101c733b)"><path fill="#1ba8e3" d="M 27.242188 26.757812 L 14.082031 26.757812 L 14.082031 26.105469 C 14.082031 25.839844 14.183594 25.589844 14.371094 25.402344 L 14.78125 24.992188 C 14.859375 24.914062 14.902344 24.8125 14.902344 24.703125 L 14.902344 18.53125 C 14.902344 16.039062 16.933594 14.007812 19.425781 14.007812 L 21.894531 14.007812 C 24.390625 14.007812 26.417969 16.039062 26.417969 18.53125 L 26.417969 24.289062 L 24.773438 24.289062 L 24.773438 25.113281 L 26.660156 25.113281 L 26.949219 25.402344 C 27.136719 25.589844 27.242188 25.839844 27.242188 26.105469 Z M 13.257812 26.105469 L 13.257812 26.757812 L 5.445312 26.757812 C 4.761719 26.757812 4.210938 26.203125 4.210938 25.523438 L 4.210938 4.960938 C 4.210938 4.28125 4.761719 3.726562 5.445312 3.726562 L 17.101562 3.726562 C 17.191406 3.726562 17.28125 3.734375 17.371094 3.753906 L 17.371094 6.605469 C 17.371094 7.738281 18.292969 8.660156 19.425781 8.660156 L 20.660156 8.660156 L 20.660156 7.839844 L 19.425781 7.839844 C 18.746094 7.839844 18.195312 7.285156 18.195312 6.605469 L 18.195312 4.308594 L 21.945312 8.058594 C 22.179688 8.292969 22.304688 8.601562 22.304688 8.929688 L 22.304688 9.894531 L 18.195312 9.894531 C 17.964844 9.894531 17.78125 10.078125 17.78125 10.304688 C 17.78125 11.179688 17.945312 12.03125 18.269531 12.839844 L 18.445312 13.277344 C 15.964844 13.738281 14.082031 15.917969 14.082031 18.53125 L 14.082031 24.53125 L 13.789062 24.820312 C 13.445312 25.164062 13.257812 25.621094 13.257812 26.105469 Z M 19.296875 13.1875 L 19.035156 12.53125 C 18.800781 11.949219 18.660156 11.339844 18.617188 10.71875 L 22.703125 10.71875 C 22.660156 11.339844 22.523438 11.949219 22.289062 12.53125 L 22.027344 13.1875 C 21.984375 13.1875 21.9375 13.183594 21.894531 13.183594 L 19.425781 13.183594 C 19.382812 13.183594 19.339844 13.1875 19.296875 13.1875 Z M 27.242188 24.53125 L 27.242188 18.53125 C 27.242188 16.007812 25.484375 13.886719 23.128906 13.328125 L 23.128906 12.636719 C 23.402344 11.890625 23.539062 11.105469 23.539062 10.304688 C 23.539062 10.078125 23.355469 9.894531 23.128906 9.894531 L 23.128906 8.929688 C 23.128906 8.382812 22.914062 7.867188 22.527344 7.476562 L 18.554688 3.503906 C 18.167969 3.117188 17.648438 2.902344 17.101562 2.902344 L 5.445312 2.902344 C 4.308594 2.902344 3.386719 3.824219 3.386719 4.960938 L 3.386719 25.523438 C 3.386719 26.65625 4.308594 27.582031 5.445312 27.582031 L 27.652344 27.582031 C 27.878906 27.582031 28.066406 27.398438 28.066406 27.167969 L 28.066406 26.105469 C 28.066406 25.621094 27.875 25.164062 27.53125 24.820312 L 27.242188 24.53125 " fill-opacity="1" fill-rule="nonzero"/></g><path fill="#1ba8e3" d="M 21.253906 20.175781 L 20.433594 20.175781 C 20.09375 20.175781 19.816406 19.902344 19.816406 19.558594 C 19.816406 19.21875 20.09375 18.945312 20.433594 18.945312 L 22.078125 18.945312 L 22.078125 18.121094 L 21.253906 18.121094 L 21.253906 17.296875 L 20.433594 17.296875 L 20.433594 18.121094 C 19.640625 18.121094 18.992188 18.765625 18.992188 19.558594 C 18.992188 20.355469 19.640625 21 20.433594 21 L 21.253906 21 C 21.59375 21 21.871094 21.277344 21.871094 21.617188 C 21.871094 21.957031 21.59375 22.234375 21.253906 22.234375 L 19.199219 22.234375 L 19.199219 23.054688 L 20.433594 23.054688 L 20.433594 23.710938 L 21.253906 23.710938 L 21.253906 23.054688 C 22.046875 23.054688 22.695312 22.410156 22.695312 21.617188 C 22.695312 20.824219 22.046875 20.175781 21.253906 20.175781 " fill-opacity="1" fill-rule="nonzero"/></svg>