<svg xmlns="http://www.w3.org/2000/svg" xmlns:xlink="http://www.w3.org/1999/xlink" width="40" zoomAndPan="magnify" viewBox="0 0 30 30.000001" height="40" preserveAspectRatio="xMidYMid meet" version="1.0"><defs><clipPath id="4a138662a9"><path d="M 12 20 L 25 20 L 25 26.78125 L 12 26.78125 Z M 12 20 " clip-rule="nonzero"/></clipPath><clipPath id="caa0fee171"><path d="M 2.589844 2.105469 L 11 2.105469 L 11 11 L 2.589844 11 Z M 2.589844 2.105469 " clip-rule="nonzero"/></clipPath><clipPath id="df676094e4"><path d="M 19 2.105469 L 27.265625 2.105469 L 27.265625 11 L 19 11 Z M 19 2.105469 " clip-rule="nonzero"/></clipPath><clipPath id="e67a56c1a9"><path d="M 2.589844 18 L 11 18 L 11 26.78125 L 2.589844 26.78125 Z M 2.589844 18 " clip-rule="nonzero"/></clipPath><clipPath id="3c8f44e7a9"><path d="M 22 11 L 27.265625 11 L 27.265625 20 L 22 20 Z M 22 11 " clip-rule="nonzero"/></clipPath><clipPath id="409e7a6192"><path d="M 2.589844 11 L 7 11 L 7 14 L 2.589844 14 Z M 2.589844 11 " clip-rule="nonzero"/></clipPath><clipPath id="3931336a42"><path d="M 26 18 L 27.265625 18 L 27.265625 23 L 26 23 Z M 26 18 " clip-rule="nonzero"/></clipPath><clipPath id="3aaf8a6b0a"><path d="M 2.589844 13 L 5 13 L 5 17 L 2.589844 17 Z M 2.589844 13 " clip-rule="nonzero"/></clipPath><clipPath id="a501481972"><path d="M 16 2.105469 L 18 2.105469 L 18 5 L 16 5 Z M 16 2.105469 " clip-rule="nonzero"/></clipPath><clipPath id="3cb21bc3a5"><path d="M 14 2.105469 L 16 2.105469 L 16 4 L 14 4 Z M 14 2.105469 " clip-rule="nonzero"/></clipPath><clipPath id="f593aa3f0e"><path d="M 26 23 L 27.265625 23 L 27.265625 25 L 26 25 Z M 26 23 " clip-rule="nonzero"/></clipPath><clipPath id="6f3f96c2a3"><path d="M 26 25 L 27.265625 25 L 27.265625 26.78125 L 26 26.78125 Z M 26 25 " clip-rule="nonzero"/></clipPath></defs><path fill="#1ba8e3" d="M 8.457031 13.863281 C 8.457031 13.492188 8.457031 13.125 8.457031 12.691406 C 8.054688 12.691406 7.695312 12.691406 7.304688 12.691406 C 7.304688 12.285156 7.304688 11.941406 7.304688 11.53125 C 8.824219 11.53125 10.359375 11.53125 11.957031 11.53125 C 11.957031 10.722656 11.957031 9.972656 11.957031 9.152344 C 12.398438 9.152344 12.785156 9.152344 13.167969 9.152344 L 13.152344 9.136719 C 13.152344 10.300781 13.152344 11.464844 13.152344 12.691406 C 12.734375 12.691406 12.375 12.691406 12.019531 12.691406 C 12.019531 13.894531 12.019531 15.035156 12.019531 16.199219 C 12.429688 16.199219 12.796875 16.199219 13.164062 16.199219 C 13.164062 16.582031 13.164062 16.964844 13.164062 17.347656 C 13.585938 17.347656 13.945312 17.347656 14.296875 17.347656 C 14.296875 16.949219 14.296875 16.59375 14.296875 16.214844 C 13.886719 16.214844 13.515625 16.214844 13.148438 16.214844 C 13.148438 15.832031 13.148438 15.445312 13.148438 15.003906 C 13.597656 15.003906 13.957031 15.003906 14.359375 15.003906 C 14.359375 14.59375 14.359375 14.246094 14.359375 13.839844 C 14.761719 13.839844 15.121094 13.839844 15.523438 13.839844 C 15.523438 13.40625 15.523438 13.039062 15.523438 12.667969 L 15.507812 12.683594 C 15.90625 12.679688 16.300781 12.671875 16.699219 12.667969 C 16.699219 13.441406 16.699219 14.214844 16.699219 14.992188 C 17.117188 14.992188 17.476562 14.992188 17.828125 14.992188 C 17.828125 14.203125 17.828125 13.453125 17.828125 12.683594 C 17.417969 12.683594 17.050781 12.683594 16.683594 12.683594 C 16.683594 12.3125 16.683594 11.945312 16.683594 11.539062 C 17.863281 11.539062 19.007812 11.539062 20.234375 11.539062 C 20.234375 11.917969 20.234375 12.300781 20.234375 12.683594 C 19.851562 12.683594 19.46875 12.683594 19.085938 12.683594 C 19.085938 13.105469 19.085938 13.460938 19.085938 13.8125 C 19.484375 13.8125 19.839844 13.8125 20.21875 13.8125 C 20.21875 13.402344 20.21875 13.035156 20.21875 12.667969 C 20.585938 12.667969 20.957031 12.667969 21.386719 12.667969 C 21.386719 13.460938 21.386719 14.210938 21.386719 15.003906 C 21.804688 15.023438 22.167969 15.039062 22.550781 15.054688 C 22.550781 15.433594 22.550781 15.777344 22.550781 16.183594 C 22.195312 16.183594 21.835938 16.183594 21.394531 16.183594 C 21.394531 17.019531 21.394531 17.796875 21.394531 18.570312 L 21.410156 18.554688 C 20.636719 18.554688 19.859375 18.554688 19.023438 18.554688 C 19.023438 18.132812 19.023438 17.773438 19.023438 17.351562 C 18.605469 17.351562 18.246094 17.351562 17.847656 17.351562 C 17.847656 16.945312 17.847656 16.601562 17.847656 16.246094 C 17.445312 16.246094 17.085938 16.246094 16.664062 16.246094 C 16.664062 16.644531 16.664062 17.003906 16.664062 17.402344 C 16.257812 17.402344 15.914062 17.402344 15.507812 17.402344 C 15.507812 18.195312 15.507812 18.949219 15.507812 19.757812 C 15.085938 19.757812 14.726562 19.757812 14.328125 19.757812 C 14.328125 20.1875 14.328125 20.558594 14.328125 20.929688 L 14.347656 20.910156 C 13.960938 20.910156 13.574219 20.910156 13.152344 20.910156 C 13.152344 21.363281 13.152344 21.734375 13.152344 22.105469 L 13.167969 22.089844 C 12.796875 22.089844 12.429688 22.089844 12.003906 22.089844 C 12.003906 20.535156 12.003906 19 12.003906 17.40625 C 10.808594 17.40625 9.664062 17.40625 8.457031 17.40625 C 8.457031 16.96875 8.457031 16.585938 8.457031 16.199219 L 8.441406 16.21875 C 9.214844 16.21875 9.988281 16.21875 10.769531 16.21875 C 10.769531 15.785156 10.769531 15.425781 10.769531 15.011719 C 10.375 15.011719 10.015625 15.011719 9.617188 15.011719 C 9.617188 14.582031 9.617188 14.214844 9.617188 13.847656 C 10 13.847656 10.382812 13.847656 10.765625 13.847656 C 10.765625 13.425781 10.765625 13.066406 10.765625 12.71875 C 10.367188 12.71875 10.011719 12.71875 9.632812 12.71875 C 9.632812 13.128906 9.632812 13.496094 9.632812 13.863281 C 9.238281 13.855469 8.839844 13.851562 8.441406 13.84375 Z M 19.082031 15.042969 C 19.082031 15.449219 19.082031 15.808594 19.082031 16.171875 C 19.476562 16.171875 19.835938 16.171875 20.179688 16.171875 C 20.179688 15.769531 20.179688 15.410156 20.179688 15.042969 C 19.804688 15.042969 19.472656 15.042969 19.082031 15.042969 Z M 19.082031 15.042969 " fill-opacity="1" fill-rule="nonzero"/><g clip-path="url(#4a138662a9)"><path fill="#1ba8e3" d="M 13.148438 23.28125 C 13.15625 22.882812 13.160156 22.484375 13.167969 22.089844 C 13.167969 22.089844 13.152344 22.105469 13.152344 22.105469 C 13.535156 22.105469 13.921875 22.105469 14.34375 22.105469 C 14.34375 21.652344 14.34375 21.28125 14.34375 20.910156 L 14.328125 20.929688 C 14.710938 20.929688 15.09375 20.929688 15.535156 20.929688 C 15.535156 21.351562 15.535156 21.710938 15.535156 22.089844 C 15.964844 22.089844 16.332031 22.089844 16.699219 22.089844 C 16.699219 22.863281 16.699219 23.640625 16.699219 24.410156 C 17.121094 24.410156 17.480469 24.410156 17.859375 24.410156 C 17.859375 23.609375 17.859375 22.847656 17.859375 22.089844 C 18.257812 22.089844 18.65625 22.089844 19.054688 22.089844 C 19.054688 22.472656 19.054688 22.859375 19.054688 23.285156 C 19.492188 23.285156 19.863281 23.285156 20.230469 23.285156 L 20.214844 23.269531 C 20.214844 23.636719 20.214844 24.007812 20.214844 24.441406 C 19.828125 24.441406 19.46875 24.441406 19.078125 24.441406 C 19.078125 24.847656 19.078125 25.195312 19.078125 25.585938 C 19.816406 25.585938 20.570312 25.585938 21.386719 25.585938 C 21.386719 25.234375 21.386719 24.875 21.386719 24.484375 C 21.796875 24.484375 22.140625 24.484375 22.550781 24.484375 C 22.550781 24.832031 22.550781 25.195312 22.550781 25.617188 C 23.367188 25.617188 24.121094 25.617188 24.902344 25.617188 C 24.902344 26.027344 24.902344 26.375 24.902344 26.765625 C 22.589844 26.765625 20.269531 26.765625 17.882812 26.765625 C 17.882812 26.414062 17.882812 26.054688 17.882812 25.664062 C 17.476562 25.664062 17.128906 25.664062 16.71875 25.664062 C 16.71875 26.011719 16.71875 26.371094 16.71875 26.769531 C 16.296875 26.769531 15.9375 26.769531 15.535156 26.769531 C 15.535156 26.417969 15.535156 26.070312 15.535156 25.679688 C 15.136719 25.679688 14.777344 25.679688 14.351562 25.679688 C 14.351562 26.023438 14.351562 26.386719 14.351562 26.777344 C 13.550781 26.777344 12.8125 26.777344 12.027344 26.777344 C 12.027344 25.644531 12.027344 24.5 12.027344 23.269531 C 12.398438 23.269531 12.78125 23.269531 13.164062 23.269531 C 13.164062 23.648438 13.164062 24.035156 13.164062 24.417969 C 13.980469 24.417969 14.730469 24.417969 15.46875 24.417969 C 15.46875 24.019531 15.46875 23.660156 15.46875 23.285156 C 14.667969 23.28125 13.90625 23.28125 13.148438 23.28125 Z M 13.148438 23.28125 " fill-opacity="1" fill-rule="nonzero"/></g><g clip-path="url(#caa0fee171)"><path fill="#1ba8e3" d="M 2.601562 2.105469 C 5.34375 2.105469 8.042969 2.105469 10.773438 2.105469 C 10.773438 4.828125 10.773438 7.527344 10.773438 10.273438 C 8.070312 10.273438 5.355469 10.273438 2.601562 10.273438 C 2.601562 7.578125 2.601562 4.863281 2.601562 2.105469 Z M 3.78125 3.28125 C 3.78125 5.257812 3.78125 7.1875 3.78125 9.097656 C 5.75 9.097656 7.679688 9.097656 9.59375 9.097656 C 9.59375 7.136719 9.59375 5.222656 9.59375 3.28125 C 7.648438 3.28125 5.734375 3.28125 3.78125 3.28125 Z M 3.78125 3.28125 " fill-opacity="1" fill-rule="nonzero"/></g><g clip-path="url(#df676094e4)"><path fill="#1ba8e3" d="M 27.25 10.296875 C 24.507812 10.296875 21.808594 10.296875 19.078125 10.296875 C 19.078125 7.570312 19.078125 4.871094 19.078125 2.125 C 21.78125 2.125 24.492188 2.125 27.25 2.125 C 27.25 4.824219 27.25 7.535156 27.25 10.296875 Z M 20.25 9.113281 C 22.230469 9.113281 24.144531 9.113281 26.074219 9.113281 C 26.074219 7.152344 26.074219 5.226562 26.074219 3.296875 C 24.109375 3.296875 22.183594 3.296875 20.25 3.296875 C 20.25 5.253906 20.25 7.167969 20.25 9.113281 Z M 20.25 9.113281 " fill-opacity="1" fill-rule="nonzero"/></g><g clip-path="url(#e67a56c1a9)"><path fill="#1ba8e3" d="M 2.601562 18.589844 C 5.34375 18.589844 8.042969 18.589844 10.773438 18.589844 C 10.773438 21.316406 10.773438 24.015625 10.773438 26.761719 C 8.070312 26.761719 5.355469 26.761719 2.601562 26.761719 C 2.601562 24.0625 2.601562 21.351562 2.601562 18.589844 Z M 9.59375 25.601562 C 9.59375 23.644531 9.59375 21.714844 9.59375 19.78125 C 7.628906 19.78125 5.703125 19.78125 3.785156 19.78125 C 3.785156 21.75 3.785156 23.675781 3.785156 25.601562 C 5.742188 25.601562 7.65625 25.601562 9.59375 25.601562 Z M 9.59375 25.601562 " fill-opacity="1" fill-rule="nonzero"/></g><g clip-path="url(#3c8f44e7a9)"><path fill="#1ba8e3" d="M 22.589844 18.574219 C 22.589844 18.203125 22.589844 17.832031 22.589844 17.402344 C 22.972656 17.402344 23.332031 17.402344 23.726562 17.402344 C 23.726562 16.195312 23.726562 15.050781 23.726562 13.867188 C 23.351562 13.867188 23.007812 13.867188 22.621094 13.867188 C 22.621094 13.464844 22.621094 13.105469 22.621094 12.683594 C 22.980469 12.683594 23.34375 12.683594 23.742188 12.683594 C 23.742188 12.277344 23.742188 11.929688 23.742188 11.539062 C 24.144531 11.539062 24.503906 11.539062 24.925781 11.539062 C 24.925781 11.898438 24.925781 12.257812 24.925781 12.660156 C 25.726562 12.660156 26.464844 12.660156 27.246094 12.660156 C 27.246094 14.238281 27.246094 15.773438 27.246094 17.394531 C 26.875 17.394531 26.488281 17.394531 26.105469 17.394531 C 26.105469 16.621094 26.105469 15.847656 26.105469 15.070312 C 25.6875 15.070312 25.328125 15.070312 24.976562 15.070312 C 24.976562 15.859375 24.976562 16.609375 24.976562 17.378906 C 25.386719 17.378906 25.753906 17.378906 26.125 17.378906 C 26.117188 17.777344 26.109375 18.175781 26.105469 18.570312 L 26.121094 18.554688 C 25.738281 18.554688 25.355469 18.554688 24.914062 18.554688 C 24.914062 18.996094 24.914062 19.355469 24.914062 19.75 C 24.488281 19.75 24.121094 19.75 23.75 19.75 C 23.75 19.367188 23.75 18.980469 23.75 18.554688 C 23.3125 18.554688 22.941406 18.554688 22.574219 18.554688 Z M 22.589844 18.574219 " fill-opacity="1" fill-rule="nonzero"/></g><path fill="#1ba8e3" d="M 13.167969 9.152344 C 13.167969 8.390625 13.167969 7.628906 13.167969 6.828125 C 13.554688 6.828125 13.914062 6.828125 14.316406 6.828125 C 14.316406 7.183594 14.316406 7.527344 14.316406 7.921875 C 14.714844 7.921875 15.074219 7.921875 15.5 7.921875 C 15.5 7.574219 15.5 7.210938 15.5 6.8125 C 15.90625 6.8125 16.253906 6.8125 16.660156 6.8125 C 16.660156 6.410156 16.660156 6.050781 16.660156 5.652344 C 17.082031 5.652344 17.441406 5.652344 17.835938 5.652344 C 17.835938 6.398438 17.835938 7.132812 17.835938 7.9375 C 17.488281 7.9375 17.128906 7.9375 16.679688 7.9375 C 16.679688 8.382812 16.679688 8.765625 16.679688 9.152344 L 16.695312 9.132812 C 16.328125 9.132812 15.957031 9.132812 15.503906 9.132812 C 15.503906 10.347656 15.503906 11.515625 15.503906 12.6875 C 15.503906 12.6875 15.519531 12.667969 15.519531 12.667969 C 15.136719 12.667969 14.753906 12.667969 14.316406 12.667969 C 14.316406 11.460938 14.316406 10.316406 14.316406 9.136719 C 13.886719 9.136719 13.519531 9.136719 13.148438 9.136719 Z M 13.167969 9.152344 " fill-opacity="1" fill-rule="nonzero"/><g clip-path="url(#409e7a6192)"><path fill="#1ba8e3" d="M 4.925781 13.859375 C 4.925781 13.492188 4.925781 13.121094 4.925781 12.691406 C 4.132812 12.691406 3.378906 12.691406 2.59375 12.691406 C 2.59375 12.273438 2.59375 11.914062 2.59375 11.527344 C 3.746094 11.527344 4.875 11.527344 6.050781 11.527344 C 6.050781 12.273438 6.050781 13.027344 6.050781 13.84375 C 5.675781 13.84375 5.292969 13.84375 4.910156 13.84375 Z M 4.925781 13.859375 " fill-opacity="1" fill-rule="nonzero"/></g><g clip-path="url(#3931336a42)"><path fill="#1ba8e3" d="M 26.101562 18.574219 C 26.472656 18.574219 26.839844 18.574219 27.25 18.574219 C 27.25 19.738281 27.25 20.878906 27.25 22.089844 C 26.871094 22.089844 26.488281 22.089844 26.105469 22.089844 L 26.121094 22.105469 C 26.121094 20.921875 26.121094 19.738281 26.121094 18.558594 Z M 26.101562 18.574219 " fill-opacity="1" fill-rule="nonzero"/></g><g clip-path="url(#3aaf8a6b0a)"><path fill="#1ba8e3" d="M 4.910156 13.84375 C 4.910156 14.605469 4.910156 15.367188 4.910156 16.167969 C 4.527344 16.167969 4.167969 16.167969 3.746094 16.167969 C 3.746094 15.808594 3.746094 15.445312 3.746094 15.046875 C 3.335938 15.046875 2.992188 15.046875 2.605469 15.046875 C 2.605469 14.648438 2.605469 14.289062 2.605469 13.859375 C 3.375 13.859375 4.148438 13.859375 4.925781 13.859375 C 4.925781 13.859375 4.910156 13.84375 4.910156 13.84375 Z M 4.910156 13.84375 " fill-opacity="1" fill-rule="nonzero"/></g><g clip-path="url(#a501481972)"><path fill="#1ba8e3" d="M 16.714844 4.40625 C 16.714844 3.632812 16.714844 2.894531 16.714844 2.117188 C 17.082031 2.117188 17.441406 2.117188 17.835938 2.117188 C 17.835938 2.871094 17.835938 3.625 17.835938 4.40625 C 17.472656 4.40625 17.125 4.40625 16.714844 4.40625 Z M 16.714844 4.40625 " fill-opacity="1" fill-rule="nonzero"/></g><path fill="#1ba8e3" d="M 8.457031 16.203125 C 8.058594 16.199219 7.660156 16.199219 7.265625 16.199219 L 7.28125 16.214844 C 7.28125 15.453125 7.28125 14.695312 7.28125 13.863281 C 7.6875 13.863281 8.074219 13.863281 8.457031 13.863281 C 8.457031 13.863281 8.441406 13.847656 8.441406 13.847656 C 8.441406 14.636719 8.441406 15.429688 8.441406 16.21875 Z M 8.457031 16.203125 " fill-opacity="1" fill-rule="nonzero"/><path fill="#1ba8e3" d="M 15.492188 4.480469 C 15.492188 4.847656 15.492188 5.191406 15.492188 5.574219 C 15.117188 5.574219 14.761719 5.574219 14.367188 5.574219 C 14.367188 5.21875 14.367188 4.875 14.367188 4.480469 C 14.710938 4.480469 15.070312 4.480469 15.492188 4.480469 Z M 15.492188 4.480469 " fill-opacity="1" fill-rule="nonzero"/><path fill="#1ba8e3" d="M 16.679688 9.152344 C 17.050781 9.152344 17.417969 9.152344 17.828125 9.152344 C 17.828125 9.527344 17.828125 9.886719 17.828125 10.285156 C 17.476562 10.285156 17.121094 10.285156 16.699219 10.285156 C 16.699219 9.898438 16.699219 9.515625 16.699219 9.132812 C 16.699219 9.132812 16.679688 9.152344 16.679688 9.152344 Z M 16.679688 9.152344 " fill-opacity="1" fill-rule="nonzero"/><path fill="#1ba8e3" d="M 21.394531 18.574219 C 21.792969 18.574219 22.191406 18.574219 22.589844 18.574219 C 22.589844 18.574219 22.570312 18.558594 22.570312 18.558594 C 22.578125 18.953125 22.582031 19.351562 22.589844 19.75 C 22.191406 19.75 21.792969 19.75 21.394531 19.75 C 21.398438 19.351562 21.40625 18.953125 21.410156 18.558594 Z M 21.394531 18.574219 " fill-opacity="1" fill-rule="nonzero"/><path fill="#1ba8e3" d="M 7.265625 16.199219 C 7.265625 16.566406 7.265625 16.9375 7.265625 17.34375 C 6.886719 17.34375 6.527344 17.34375 6.132812 17.34375 C 6.132812 16.996094 6.132812 16.636719 6.132812 16.214844 C 6.515625 16.214844 6.898438 16.214844 7.28125 16.214844 C 7.28125 16.214844 7.265625 16.199219 7.265625 16.199219 Z M 7.265625 16.199219 " fill-opacity="1" fill-rule="nonzero"/><path fill="#1ba8e3" d="M 22.585938 22.089844 C 22.191406 22.089844 21.792969 22.089844 21.394531 22.089844 L 21.410156 22.105469 C 21.40625 21.707031 21.398438 21.308594 21.394531 20.910156 C 21.792969 20.910156 22.191406 20.910156 22.585938 20.910156 C 22.582031 21.308594 22.578125 21.707031 22.570312 22.105469 Z M 22.585938 22.089844 " fill-opacity="1" fill-rule="nonzero"/><g clip-path="url(#3cb21bc3a5)"><path fill="#1ba8e3" d="M 15.464844 3.246094 C 15.085938 3.246094 14.757812 3.246094 14.382812 3.246094 C 14.382812 2.875 14.382812 2.515625 14.382812 2.117188 C 14.726562 2.117188 15.085938 2.117188 15.464844 2.117188 C 15.464844 2.496094 15.464844 2.867188 15.464844 3.246094 Z M 15.464844 3.246094 " fill-opacity="1" fill-rule="nonzero"/></g><path fill="#1ba8e3" d="M 21.394531 22.089844 C 21.394531 22.457031 21.394531 22.828125 21.394531 23.265625 C 20.984375 23.265625 20.601562 23.265625 20.214844 23.265625 C 20.214844 23.265625 20.234375 23.28125 20.234375 23.28125 C 20.226562 22.882812 20.222656 22.488281 20.214844 22.089844 C 20.613281 22.09375 21.011719 22.101562 21.410156 22.105469 Z M 21.394531 22.089844 " fill-opacity="1" fill-rule="nonzero"/><path fill="#1ba8e3" d="M 23.765625 23.265625 C 23.394531 23.265625 23.027344 23.265625 22.585938 23.265625 C 22.585938 22.855469 22.585938 22.472656 22.585938 22.089844 C 22.585938 22.089844 22.570312 22.105469 22.570312 22.105469 C 22.96875 22.101562 23.367188 22.09375 23.765625 22.089844 C 23.757812 22.484375 23.753906 22.882812 23.75 23.28125 Z M 23.765625 23.265625 " fill-opacity="1" fill-rule="nonzero"/><path fill="#1ba8e3" d="M 26.105469 22.089844 C 26.105469 22.484375 26.101562 22.882812 26.101562 23.28125 L 26.117188 23.265625 C 25.722656 23.265625 25.324219 23.265625 24.925781 23.265625 L 24.941406 23.28125 C 24.9375 22.882812 24.933594 22.488281 24.925781 22.089844 C 25.324219 22.09375 25.722656 22.101562 26.121094 22.105469 Z M 26.105469 22.089844 " fill-opacity="1" fill-rule="nonzero"/><path fill="#1ba8e3" d="M 11.992188 5.578125 C 11.992188 5.183594 11.992188 4.855469 11.992188 4.480469 C 12.359375 4.480469 12.71875 4.480469 13.121094 4.480469 C 13.121094 4.824219 13.121094 5.183594 13.121094 5.578125 C 12.757812 5.578125 12.398438 5.578125 11.992188 5.578125 Z M 11.992188 5.578125 " fill-opacity="1" fill-rule="nonzero"/><path fill="#1ba8e3" d="M 24.925781 23.265625 C 24.925781 23.632812 24.925781 24.003906 24.925781 24.410156 C 24.546875 24.410156 24.1875 24.410156 23.765625 24.410156 C 23.765625 24.03125 23.765625 23.648438 23.765625 23.265625 C 23.765625 23.265625 23.75 23.28125 23.75 23.28125 C 24.148438 23.28125 24.546875 23.28125 24.945312 23.28125 Z M 24.925781 23.265625 " fill-opacity="1" fill-rule="nonzero"/><g clip-path="url(#f593aa3f0e)"><path fill="#1ba8e3" d="M 26.101562 23.28125 C 26.46875 23.28125 26.839844 23.28125 27.246094 23.28125 C 27.246094 23.660156 27.246094 24.015625 27.246094 24.414062 C 26.898438 24.414062 26.539062 24.414062 26.117188 24.414062 C 26.117188 24.03125 26.117188 23.648438 26.117188 23.265625 C 26.117188 23.265625 26.101562 23.28125 26.101562 23.28125 Z M 26.101562 23.28125 " fill-opacity="1" fill-rule="nonzero"/></g><g clip-path="url(#6f3f96c2a3)"><path fill="#1ba8e3" d="M 27.261719 25.667969 C 27.261719 26.058594 27.261719 26.40625 27.261719 26.777344 C 26.890625 26.777344 26.546875 26.777344 26.15625 26.777344 C 26.15625 26.429688 26.15625 26.070312 26.15625 25.667969 C 26.503906 25.667969 26.859375 25.667969 27.261719 25.667969 Z M 27.261719 25.667969 " fill-opacity="1" fill-rule="nonzero"/></g><path fill="#1ba8e3" d="M 21.410156 20.929688 C 21.039062 20.929688 20.671875 20.929688 20.234375 20.929688 C 20.234375 21.335938 20.234375 21.722656 20.234375 22.105469 C 19.835938 22.105469 19.4375 22.105469 19.039062 22.105469 C 19.039062 21.34375 19.039062 20.582031 19.039062 19.734375 C 19.855469 19.734375 20.632812 19.734375 21.410156 19.734375 C 21.410156 20.132812 21.410156 20.53125 21.410156 20.929688 Z M 21.410156 20.929688 " fill-opacity="1" fill-rule="nonzero"/><path fill="#1ba8e3" d="M 17.84375 18.59375 C 17.84375 18.972656 17.84375 19.316406 17.84375 19.703125 C 17.480469 19.703125 17.121094 19.703125 16.726562 19.703125 C 16.726562 19.339844 16.726562 18.984375 16.726562 18.59375 C 17.089844 18.59375 17.433594 18.59375 17.84375 18.59375 Z M 17.84375 18.59375 " fill-opacity="1" fill-rule="nonzero"/><path fill="#1ba8e3" d="M 17.878906 22.105469 C 17.480469 22.105469 17.082031 22.105469 16.683594 22.105469 C 16.683594 21.738281 16.683594 21.367188 16.683594 20.960938 C 17.078125 20.960938 17.4375 20.960938 17.878906 20.960938 C 17.878906 21.339844 17.878906 21.722656 17.878906 22.105469 Z M 17.878906 22.105469 " fill-opacity="1" fill-rule="nonzero"/><path fill="#1ba8e3" d="M 4.957031 4.460938 C 6.128906 4.460938 7.257812 4.460938 8.417969 4.460938 C 8.417969 5.613281 8.417969 6.742188 8.417969 7.917969 C 7.285156 7.917969 6.144531 7.917969 4.957031 7.917969 C 4.957031 6.792969 4.957031 5.652344 4.957031 4.460938 Z M 4.957031 4.460938 " fill-opacity="1" fill-rule="nonzero"/><path fill="#1ba8e3" d="M 21.441406 4.460938 C 22.617188 4.460938 23.746094 4.460938 24.90625 4.460938 C 24.90625 5.617188 24.90625 6.746094 24.90625 7.921875 C 23.769531 7.921875 22.625 7.921875 21.441406 7.921875 C 21.441406 6.789062 21.441406 5.648438 21.441406 4.460938 Z M 21.441406 4.460938 " fill-opacity="1" fill-rule="nonzero"/><path fill="#1ba8e3" d="M 4.960938 20.941406 C 6.117188 20.941406 7.246094 20.941406 8.410156 20.941406 C 8.410156 22.105469 8.410156 23.25 8.410156 24.421875 C 7.265625 24.421875 6.136719 24.421875 4.960938 24.421875 C 4.960938 23.289062 4.960938 22.144531 4.960938 20.941406 Z M 4.960938 20.941406 " fill-opacity="1" fill-rule="nonzero"/><path fill="#1ba8e3" d="M 23.765625 20.929688 C 23.367188 20.929688 22.96875 20.929688 22.570312 20.929688 C 22.570312 20.53125 22.570312 20.132812 22.570312 19.734375 C 22.96875 19.734375 23.367188 19.734375 23.765625 19.734375 C 23.765625 20.132812 23.765625 20.53125 23.765625 20.929688 Z M 23.765625 20.929688 " fill-opacity="1" fill-rule="nonzero"/><path fill="#1ba8e3" d="M 24.941406 22.105469 C 24.542969 22.105469 24.148438 22.105469 23.75 22.105469 C 23.75 21.707031 23.75 21.308594 23.75 20.910156 C 24.117188 20.910156 24.488281 20.910156 24.941406 20.910156 C 24.941406 21.335938 24.941406 21.71875 24.941406 22.105469 Z M 24.941406 22.105469 " fill-opacity="1" fill-rule="nonzero"/></svg>