<svg xmlns="http://www.w3.org/2000/svg" xmlns:xlink="http://www.w3.org/1999/xlink" width="40" zoomAndPan="magnify" viewBox="0 0 30 30.000001" height="40" preserveAspectRatio="xMidYMid meet" version="1.0"><defs><clipPath id="35929795fb"><path d="M 2.066406 1.503906 L 28.195312 1.503906 L 28.195312 27.632812 L 2.066406 27.632812 Z M 2.066406 1.503906 " clip-rule="nonzero"/></clipPath></defs><g clip-path="url(#35929795fb)"><path fill="#1ba8e3" d="M 11.710938 27.09375 C 12.160156 26.5 12.039062 25.660156 11.441406 25.214844 L 5.679688 20.921875 L 11.441406 16.625 C 12.039062 16.179688 12.160156 15.339844 11.710938 14.746094 C 11.265625 14.152344 10.417969 14.03125 9.820312 14.476562 L 2.617188 19.847656 C 2.277344 20.101562 2.078125 20.5 2.078125 20.921875 C 2.078125 21.34375 2.277344 21.742188 2.617188 21.996094 L 9.820312 27.363281 C 10.0625 27.542969 10.347656 27.632812 10.628906 27.632812 C 11.039062 27.632812 11.445312 27.445312 11.710938 27.09375 Z M 20.445312 14.835938 L 27.648438 9.46875 C 27.988281 9.214844 28.1875 8.816406 28.1875 8.394531 C 28.1875 7.96875 27.988281 7.574219 27.648438 7.320312 L 20.445312 1.949219 C 19.847656 1.503906 19 1.625 18.554688 2.21875 C 18.105469 2.8125 18.226562 3.652344 18.824219 4.097656 L 24.585938 8.394531 L 18.824219 12.6875 C 18.226562 13.132812 18.105469 13.972656 18.554688 14.566406 C 18.820312 14.917969 19.226562 15.105469 19.636719 15.105469 C 19.917969 15.105469 20.203125 15.015625 20.445312 14.835938 Z M 26.835938 19.578125 L 8.980469 19.578125 L 7.179688 20.921875 L 8.980469 22.261719 L 26.835938 22.261719 C 27.582031 22.261719 28.1875 21.660156 28.1875 20.921875 C 28.1875 20.179688 27.582031 19.578125 26.835938 19.578125 Z M 21.285156 9.734375 L 3.429688 9.734375 C 2.683594 9.734375 2.078125 9.132812 2.078125 8.394531 C 2.078125 7.652344 2.683594 7.050781 3.429688 7.050781 L 21.285156 7.050781 L 23.085938 8.394531 L 21.285156 9.734375 " fill-opacity="1" fill-rule="nonzero"/></g></svg>